<svg xmlns="http://www.w3.org/2000/svg" viewBox="0 0 512 512"><title>Artboard 138</title><g id="Rocket"><circle cx="426.66667" cy="106.66667" r="64" style="fill:#0784ff"/><rect x="390.24839" y="61.41184" width="30.16989" height="47.84298" rx="15.08493" ry="15.08493" transform="translate(58.37961 311.6075) rotate(-45)" style="fill:#4cc66e"/><path d="M362.66667,106.66667a63.99994,63.99994,0,0,0,64,64h.19824l.04036-.00065h.10108c.01725-.00066.03971-.00066.057-.00066h.0446c.01937-.00065.03548-.00065.05485-.00065h.04395c.01709-.00065.0389-.00065.05615-.00065l.04329-.00065c.01937,0,.03793,0,.05729-.00065h.04135c.01936-.00065.03776-.00065.05712-.00065l.04395-.00065.05892-.0013h.03841l.075-.00131.02425-.00065c.03435,0,.065-.00065.09929-.0013l.02213-.00065c.02588,0,.04948-.00065.07536-.0013l.03988-.00065.06006-.00131.04036-.00065.05811-.0013.04215-.0013c.01921,0,.03825-.00065.05746-.0013l.043-.00065c.01726-.00065.03744-.00131.05453-.00131l.04541-.0013.05518-.0013.04231-.0013c.01937-.00065.03972-.0013.05892-.0013l.03972-.00131.06233-.00195.03646-.0013.06608-.00195.03321-.00066c.06429-.00195.1333-.00455.19742-.00651l.02865-.0013c.02344-.00065.04573-.0013.06917-.0026l.03972-.0013.05745-.002.04476-.00195.055-.002.04167-.002.05778-.00195.04118-.00195c.0192-.00065.03906-.0013.05827-.00261l.04052-.0013c.01921-.0013.03776-.002.057-.0026l.04264-.002c.02132-.0013.03906-.002.06039-.0026l.036-.002c.02343-.00065.0441-.002.06754-.00326l.03174-.0013c.02572-.0013.04915-.00261.07471-.00326l.02409-.0013c.0319-.00195.06477-.00325.09668-.00521l.03352-.0013.06576-.00391.03695-.0013c.019-.0013.04166-.0026.06071-.00325l.0402-.00261c.0192-.00065.03971-.002.05892-.00325l.04052-.00195.057-.00326.042-.0026c.019-.00066.03809-.002.05729-.00326l.04135-.0026c.019-.00065.03743-.002.05664-.00326l.04166-.0026.05632-.00326.04264-.0026.05518-.00326.0428-.0026.05713-.00391.041-.0026c.0319-.002.064-.00391.09586-.00651h.00277c.03174-.002.0638-.00456.09554-.00651l.02962-.002c.02344-.00195.0446-.00325.068-.00455l.03857-.00261.05843-.00455.042-.00261c.01693-.0013.03825-.00325.05518-.00391l.04508-.0039.05193-.00326.04557-.0039.05143-.00391.04753-.00325.04964-.00391.04687-.00391.05257-.0039.04444-.00326c.019-.00195.03841-.00325.05729-.00456l.03923-.00325c.02115-.00195.04313-.00391.06429-.00521l.03385-.0026.09538-.00847.03385-.0026.06234-.00521.042-.00391.05648-.00455.04329-.00391.05176-.00456.04753-.00455c.01692-.00131.03418-.00261.0511-.00456l.0446-.00391.0529-.00455.04345-.00391c.01888-.00195.0363-.00391.05518-.00521l.04264-.00391.05241-.0052.04574-.00456.05257-.00456.04362-.00456.05713-.0052.03971-.00391.05843-.00586c.02881-.00325.06055-.00651.08936-.00911l.04183-.00391.05143-.00586c.01465-.0013.03109-.0026.04574-.00456l.04638-.00455c.01677-.002.03418-.00391.051-.00521l.04736-.00521.0485-.00521.04769-.00521.049-.00521.04769-.0052c.01677-.00131.03386-.00326.05062-.00521l.04411-.00456.05273-.00586.04476-.00521.05274-.00586.04345-.00455.05192-.00651.04525-.00456.05843-.00716.03679-.00391c.03141-.00391.06282-.00781.09423-.01107l.03695-.00455.05957-.00717.04378-.0052.051-.00586.04882-.00586.04753-.00586.04834-.00586.047-.00586.04948-.00651.04638-.00521.05-.00651.04476-.00586c.01709-.00195.03353-.00391.05062-.00651l.04753-.00586.04752-.00586.048-.00651.04834-.00651c.01464-.0013.03271-.00391.04736-.00586l.048-.00651.05144-.00651c.02653-.00391.056-.00781.08268-.01107l.05371-.00716.04508-.00651.0503-.00651.04785-.00651.04752-.00651c.01514-.00261.03239-.00456.04753-.00651l.048-.00716.04916-.00651.0459-.00651.04866-.00717.047-.00651.049-.00716.0459-.00651.04915-.00716c.01449-.00195.02946-.00391.044-.00651.01888-.0026.03418-.00456.05306-.00781l.0389-.00521.05517-.00846.03874-.00586c.07178-.01042.14193-.02084.2137-.0319l.02556-.00391.06022-.00911.03581-.00586c.01888-.00261.03646-.00521.05534-.00847l.03906-.00586.05387-.00846.04167-.00651.05355-.00846.03938-.00652.055-.00846.04085-.00651c.01888-.00325.03369-.00586.05257-.00846l.04281-.00716.05094-.00782.04509-.00781.05029-.00781.03841-.00651c.01888-.00326.0376-.00651.05648-.00912l.03206-.00586.10384-.01692.04818-.00847.04785-.00781c.01433-.0026.03239-.00586.04671-.00781l.04851-.00847.04524-.00781.05111-.00911.0433-.00716.04931-.00847.04558-.00846c.01692-.00261.0332-.00521.05-.00846.01449-.00261.028-.00521.04248-.00717l.05274-.00976.03939-.00716.0555-.00977.03841-.00651.054-.00976.03923-.00717c.01872-.00325.03695-.00651.05566-.01041l.03207-.00586c.06933-.01237.13818-.02539.20735-.03776l.03646-.00716.05388-.00977.03906-.00781.05664-.01042.03581-.00651.05892-.01172.033-.00586.0594-.01172.03451-.00651.05794-.01106.03467-.00651.05876-.01172.03287-.00651.06055-.01172.0293-.00586.06347-.01237.02426-.00521c.10791-.02148.21875-.04362.32649-.06576l.01123-.00195.07113-.015.02181-.00456c.02051-.00391.04362-.00846.064-.013l.03012-.00586.06038-.013.03255-.00651.05843-.01237.03418-.00716.05941-.01237.03141-.00716.06022-.01237.03077-.00651.06315-.01368.02164-.00455.07048-.01563.0057-.00065c.08512-.01888.17334-.03776.2583-.05664l.00309-.00065.06673-.015.02718-.00586.064-.01433.0262-.00586.06364-.01432.02946-.00651.06055-.01367.03108-.00716.06023-.01367.03173-.00717c.02035-.00455.04053-.00911.06071-.01432l.02735-.00586c.02213-.00521.04345-.01042.06559-.015l.02132-.00521c.02393-.00521.04606-.01042.06983-.01628l.01464-.00325c.11036-.026.21713-.05078.32715-.07748l.0153-.00325.06527-.01563.027-.00651.0638-.01562.02653-.00651.06331-.015.02751-.00651.06413-.01627.0262-.00586c.02-.00521.043-.01107.063-.01563l.02848-.00716.06348-.01562.02392-.00586c.022-.00586.04542-.01107.06739-.01693l.01546-.00391c.14079-.03515.27816-.06966.41862-.10612l.00911-.00195c.02377-.00651.04688-.01237.07064-.01823l.02149-.00586c.022-.00521.04524-.01172.06722-.01692l.02246-.00586.06689-.01758.02279-.00586.0682-.01823.01969-.00521c.0236-.00586.04557-.01172.06917-.01823l.02051-.00521.0708-.01888.01156-.00325c.14176-.03776.28467-.07617.42594-.11459l.001-.00065c.02539-.00651.0498-.01367.07519-.02018l.01547-.00456.06933-.01888.02051-.00586.0682-.01888.02115-.00586c.02165-.00585.04493-.01236.06657-.01888l.02328-.00651.06608-.01822.023-.00652.06559-.01822.022-.00651.07-.01954.00732-.0026c.139-.03906.27963-.08008.4183-.12044l.01042-.00326c.02522-.00716.04834-.01367.0734-.02148l.015-.00391.06967-.02083.0205-.00586.0695-.02083.01628-.00456c.02506-.00781.04752-.01433.07275-.02149l.01433-.00455.07356-.02214.01286-.00391.07552-.02213.00814-.00261c.19727-.05989.39518-.12044.59163-.18164l.00554-.00195c.02669-.00781.05045-.01562.07715-.02409l.01139-.00325.07633-.02409.00977-.00326.07682-.02408.00912-.00326.07975-.02474.00081-.00065c.19955-.06315.39551-.127.59424-.19206l.00358-.0013c.0267-.00911.05371-.01758.08024-.02669l.00635-.002.07585-.02539.01318-.0039.07471-.02539.009-.00261.07845-.02669.00423-.0013q.33715-.11328.673-.22982l.00325-.0013.0791-.02735.00749-.0026c.02474-.00911.05322-.01888.0778-.02734l.00684-.00261.0804-.028.0013-.00065c.28109-.099.55908-.19987.83838-.30274l.00326-.0013c.02783-.00977.0524-.01888.0804-.0293l.00439-.00195a64.21148,64.21148,0,0,0,34.25147-29.91081h0q.20824-.38964.41064-.78125l.001-.00195.03955-.07682.00114-.002.03874-.07552.0026-.00521.0389-.07617h.00016q.14088-.27538.27881-.55208l.00065-.00065.03728-.07487.00292-.00586.03516-.071.0057-.01172.03336-.06706.00717-.015.03157-.06381.00977-.01953.03108-.0638.00684-.01367.03369-.069.00309-.00586q.113-.23145.22429-.46354l.00651-.01368.03174-.0664.00732-.01563.03076-.06445.00863-.01823.03027-.0638.00863-.01823.02946-.0625.01009-.02148.0293-.06185.00765-.01628.03125-.06706.00455-.00976c.04623-.09831.09326-.19987.139-.29883l.00781-.01693.02816-.06054.00993-.02214.0262-.05664.01319-.02865.02425-.05338.01383-.03.02409-.05273.01465-.03256.02376-.05208.01335-.0293.02458-.05468.01432-.03191.02311-.05143.01449-.0319.0236-.05273.01285-.02865.02491-.05534.00455-.01041c.01807-.04037.03728-.08334.05518-.12435l.01351-.02995.02051-.04622.01725-.03972.01888-.04232.01937-.04427.01741-.03971.01986-.04492.01839-.04232.01921-.04427.01758-.04037.01969-.04492.0179-.041.01921-.04492.01774-.041.01855-.043.01889-.04362.01806-.04232.01839-.043.01774-.041.03239-.07617.022-.05209.01823-.04231.01725-.041.0192-.04557.01807-.04232.01725-.041.01888-.04492.0166-.03971.02035-.04883.01546-.03711.02067-.04948.01514-.03646.02246-.054.01286-.03125.02441-.0586.01123-.02734.02718-.06641.00847-.02018.0306-.07487.0052-.013c.02458-.0599.04786-.11719.07227-.17773l.00472-.01172.03027-.07487.009-.02214.02636-.06575.01009-.02474.02556-.0638.00927-.02344.02637-.06576.00928-.02343.02588-.06511.00911-.02344.02572-.0651.0096-.02409.02848-.07226.00521-.013.03418-.08789.00033-.00065c.04736-.12109.09359-.24088.1403-.362l.0026-.00716.03174-.08268.00391-.00977.02962-.07812.0057-.015.02913-.07683.00456-.01237.02994-.07877.00391-.01042.03239-.08659.00081-.00195c.06869-.1836.13623-.36589.20329-.55013h.00016l.03272-.0905.0013-.0039c.0223-.0612.04362-.12045.06576-.18164h0a63.60506,63.60506,0,0,0,3.125-12.65821q.03514-.25488.06412-.50846c.02881-.19141.05518-.38477.07894-.57813q.30176-2.45312.416-4.96158l.00016-.00521c.00277-.05925.00537-.11914.00781-.17839l.00082-.01758.0039-.09765.001-.02214.00651-.16862.00114-.02929.00293-.07943.00114-.03581.00179-.04752.00228-.06771.0013-.043.00147-.04427.002-.0586.00163-.054.00114-.03906.00211-.07227L490.641,108.5l.00147-.054.001-.03971.00179-.06771.001-.03776.00179-.07422.00081-.03255.00147-.0612.00065-.02864.00163-.07878.00065-.0319.00163-.07943.00048-.02539.00114-.069.00049-.02344.0013-.08333.00049-.02539.0013-.08594.00017-.01562.00114-.07813.00016-.02083.00114-.08594.00016-.02278.001-.08855v-.01041l.00081-.084.00016-.01758.00065-.08789v-.02148l.00049-.0905.00017-.00325.00032-.09115v-.01627l.00016-.0905.00017-.01627v-.09375h0l-.00017-.11v-.03516l-.00016-.07487-.00016-.04231-.00033-.06836-.00032-.04427-.00033-.06641-.00032-.04492-.00049-.06576-.00049-.04492-.00065-.06706-.00049-.04362-.00081-.07161-.00033-.03776-.00114-.082-.00049-.0293-.00162-.10872-.00049-.0293-.0013-.08008-.00066-.041-.0013-.06966-.001-.04362-.00131-.06576-.001-.04557-.00147-.06576-.001-.04362-.00163-.06771-.001-.04231-.00179-.07032-.00114-.04036-.002-.07162-.00114-.03906-.00309-.10807-.00033-.00977-.00309-.09961-.0013-.03906-.00228-.06966-.00147-.04427-.00228-.06576-.00162-.04492-.00244-.0664-.00147-.04167-.0026-.069-.00163-.04232-.00277-.06836-.00163-.04166-.00292-.069-.0018-.041-.00406-.097-.00049-.01041-.005-.11-.0013-.02734-.00391-.08268-.00162-.03581-.00358-.07227-.00212-.04232-.00342-.0677-.00211-.043-.00342-.06576-.00244-.04427-.00358-.06575-.00245-.04427-.00358-.06511-.00244-.04427-.00423-.07227-.00195-.0358-.00651-.10742-.00114-.02084-.00554-.08854-.00228-.03646-.00455-.07226-.00261-.041-.00439-.06771-.00277-.04362-.00439-.0651-.00293-.04492-.00456-.06511-.00293-.04232-.00472-.06835-.00293-.041-.00553-.07682-.00212-.02995c-.00553-.07487-.01074-.14649-.01644-.22135l-.00081-.00912-.00749-.09766-.0026-.03255-.006-.07617-.00293-.03646-.0057-.07161-.00326-.03972-.00569-.06966-.00342-.03971-.0057-.069-.00342-.04037-.00634-.07356-.00293-.03386-.008-.08984-.00146-.01758-.00993-.11-.001-.01106-.00879-.09636-.00309-.03385-.007-.07487-.00342-.03711-.00683-.071-.00375-.03972-.00667-.069-.0039-.03971-.00684-.06836-.00391-.041-.00732-.07161-.00342-.03451-.0083-.08138-.00277-.02669c-.00748-.07292-.015-.14453-.02278-.21745l-.00244-.02344-.00912-.08463-.00374-.03385-.00782-.07162-.00455-.041-.00733-.06705-.00472-.04232-.00732-.0651-.00488-.04232-.00782-.069-.00439-.03776-.00879-.07487-.00374-.0319-.01058-.08985-.00212-.01758-.013-.10937-.0013-.01042-.01172-.0957-.00374-.0319-.00944-.07617-.0044-.03516-.00911-.07292-.00456-.03515-.00912-.07162-.00488-.03906-.009-.06836-.00488-.03841-.00944-.07227-.00456-.03515-.01107-.08334-.00293-.02213c-.0096-.07227-.01953-.14453-.02929-.2168l-.00277-.02018-.01188-.08594-.0044-.03125-.01058-.07682-.00488-.03451-.00993-.07031-.00569-.03971-.00993-.06836-.00537-.03776-.01058-.07292-.00472-.03255-.01221-.084-.00342-.02214-.01579-.10612v-.00065c-.0109-.07292-.02181-.14518-.033-.2181l-.00276-.01888-.01351-.08659-.00456-.02995-.01172-.07552-.0057-.03515-.01139-.07292-.00521-.03255-.012-.07552-.00521-.03256-.01237-.07682-.00472-.0293-.014-.08658-.00325-.02019c-.01172-.071-.0236-.14323-.03565-.21419l-.00325-.02018-.01449-.08529-.00537-.0319-.01237-.07292-.00635-.03645-.01237-.07227-.00569-.0332-.01286-.07357-.0057-.03255-.01367-.07813-.00488-.02734-.01563-.08789-.00293-.01758c-.01936-.10742-.03857-.21419-.05843-.32161l-.0039-.02149-.01547-.084-.00553-.0293-.01432-.07682-.00554-.02995-.01448-.07682-.0057-.02995-.01514-.08008-.00472-.02409-.01627-.08528-.00423-.02214c-.02067-.10677-.04167-.21419-.063-.32161l-.00147-.00717-.019-.0957-.00521-.026-.01627-.08073-.00521-.026-.01628-.08008-.00537-.02669-.0166-.08073-.00521-.02539-.01676-.08138-.00521-.02474-.01872-.08985-.00309-.015c-.0223-.10677-.04476-.21224-.06755-.319l-.00439-.01953-.01839-.08594-.005-.02279-.0179-.08268-.0057-.02539-.01741-.08008-.00586-.02669-.01742-.07878-.006-.02734-.01872-.08333-.00439-.02018-.02246-.09961-.001-.00456c-.01611-.07162-.03223-.14193-.0485-.21289l-.00375-.01628-.02067-.08919-.00472-.02083-.0192-.08269-.00619-.02669-.01823-.07812-.00683-.02865-.01791-.07617-.00667-.028-.01937-.08138-.00521-.02213-.02213-.09245-.00277-.01107c-.02539-.10547-.05127-.21289-.07731-.31771l-.00326-.01367-.02213-.08919-.0057-.02344-.02034-.08138-.00586-.02344-.02035-.08138-.00618-.02474-.021-.08333-.00488-.01888-.02376-.09375-.00261-.00976c-.027-.10612-.05452-.2129-.08219-.319l-.00082-.00325-.026-.09961-.00423-.01562-.02311-.0879-.00537-.02018-.022-.08268-.00618-.02344-.0223-.08333-.00521-.01953-.02441-.0905-.00326-.01172q-.05688-.21093-.11539-.42122l-.00228-.00846-.026-.0931-.005-.01823-.02393-.08529-.00585-.02083-.02409-.08529-.00472-.01627-.02572-.09115-.00358-.01237-.02832-.099-.00114-.0039c-.03044-.10612-.06071-.21029-.09163-.31641l-.00082-.0026-.02929-.10026-.00359-.01172-.02685-.0905-.00456-.01562-.027-.0905-.00341-.01172-.028-.09375-.00309-.01041-.03011-.09961-.00065-.00261q-.07935-.26172-.16048-.52278l-.00228-.00716-.02995-.09571-.00309-.00976-.02963-.0944-.00293-.00912-.03125-.099-.001-.00325c-.05518-.17318-.11117-.347-.16765-.52019l-.00179-.00585-.03173-.09636-.00293-.00911-.03142-.09506-.00244-.00781-.03222-.097-.002-.00586c-.06852-.20573-.139-.41406-.20963-.61914l-.00163-.00456-.03353-.097L487.16,85.7194l-.033-.095-.00228-.00716c-.01139-.0319-.02294-.06511-.03418-.09766l-.00146-.00391q-.10815-.30858-.2194-.61653l-.0013-.00391-.03646-.10026-.00016-.00065c-.09978-.27409-.20085-.54622-.3042-.819l-.001-.0026-.03776-.099-.001-.00261c-.10384-.27278-.20882-.54231-.31624-.81315l-.00049-.00065c-.10742-.27083-.21647-.53971-.32747-.80859h0a64.17142,64.17142,0,0,0-18.21517-24.75847,21.3333,21.3333,0,1,0-27.32471,32.76888A21.31337,21.31337,0,0,1,448,106.66667a22.0153,22.0153,0,0,1-.16276,2.68489c-.008.0638-.01546.12761-.02279.19206-.00993.0651-.01937.13021-.02864.196a21.33778,21.33778,0,0,1-42.45248-3.07291,21.33333,21.33333,0,1,0-42.66666,0Z" style="fill:#005eee"/><circle cx="106.66667" cy="106.66667" r="85.33333" style="fill:#7d8fac"/><path d="M167.81966,66.35319a21.35011,21.35011,0,0,0-20.38411,27.653,42.73354,42.73354,0,0,1-40.76888,55.32715,42.29852,42.29852,0,0,1-25.04753-8.11816,21.33324,21.33324,0,0,0-25.12435,34.4847A85.095,85.095,0,0,0,76.957,186.68571l.00326.00146.18033.06657.00456.00179.17709.065.01432.00537.10742.03906.00716.00277.17774.06461.00781.00261c.05859.02132.11654.04215.17578.06331l.01432.00521.10808.03873.00716.00277c.05924.021.11849.04216.17773.063l.00912.00342.17513.06185.01627.00569.10612.03744.00781.00277c.05925.02067.11654.04069.17579.06119l.01237.00456.16992.05876.026.00895.0944.03255.01693.00586.05664.01953.00781.00261.10938.03743.01367.00456c.054.01855.11328.03841.16732.0568l.02994.01009.097.03288.01172.00391.056.01888.01888.00618.0944.03174.02213.00732.05469.01823.00912.00326.10286.034.02539.0083c.03581.012.07422.02474.11068.03662l.0013.00049.056.01855.02083.00667.0918.03011.02474.0083.05143.01677.02865.00928.08138.02653.0345.01123.08334.027.02669.00846.05078.01644.0306.00976.07812.02507.03321.01074.04948.01579.03971.01269.0651.02084.04493.01416.041.01318.06836.02149.04232.0135.041.01286.0612.01937.04883.01514.04167.01318.05143.01611.05469.01693.04948.01546.04036.01237.06706.021.04427.01367.04036.01253.05209.01595.05794.01775.04167.01285.05078.01547.05338.01627.05143.01579.04037.012.07031.02133.03776.01155.04753.01432.03711.01123.07161.02149.03972.01188.05078.01514.05143.01513.05664.01709.03581.01058.07357.02181.0358.01058.05078.015.03516.01025.07227.02132.041.01188.04883.01433.04948.01448.05859.01709.03841.01107.0625.01823.04558.01318.04882.014.03907.01123.07226.02083.03711.01058.05339.01514.03711.01074.07291.02051.0319.00911.06576.01856.04167.01172.056.016.0345.0096.07487.021.03581.00993.054.01513.03321.00928.07552.021.0345.0096.06576.01807.0332.00927.06706.01823.0293.00814.08007.022.02735.00749.06315.01709.028.00765.08138.02213.026.007.06966.01872.0306.0083.071.019.02865.00765.08007.02133.0293.00781.0625.0166.02734.00716.08269.022.02474.00651.07552.0197.01367.00374.08463.02214.02735.00716.08333.02165.01823.00472.07357.0192.02344.00586.08593.02214.02019.0052.07226.01872.02214.00554.08268.02115.026.00668.082.02067.02149.00537.07161.01823.026.00651.08334.02083.02343.006.07162.01775.02083.00537.08333.0205.02735.00684.08073.02.01562.00374.07748.019.02734.00683.08529.02067.01692.00423.07878.01921.01628.00407.08919.02132.01953.00488.08138.01954.01432.00341.08594.02067.02149.005.08854.02116.01367.00309.08008.019.01953.00456.08594.02018.02343.00554.08138.019.00977.00228.08854.02051.02279.00537.09049.02083.00391.001.08854.02051.01758.0039.08919.02051.01888.00423.07878.0179.01627.00375.08724.01969.02344.00537.08854.01986.00977.00212.084.01871.01888.0044.0905.02018.01367.00293L88.21549,190l.01237.00277.0905.01985.01953.00424.1862.04052.01693.00358.09179.01986.01172.00244.08529.01839.015.0031.0918.01953.01562.00342c.06185.01318.127.02685.18946.04l.015.0031.0944.01969.00716.00163.08985.01872.013.0026.09375.01937.01367.00277c.0625.01285.1263.026.1888.03873l.01888.00391.19011.03841.013.0026.09505.01888.01042.00212.09244.01839.00651.0013.09506.01888.01367.00277.09635.01872.00261.00065.0931.01807.015.00293.0931.01806.013.00244.09245.01774.00455.001.09571.01823.01562.00293c.0625.012.1263.02409.18946.036l.01822.00342.09441.01758.00455.00081.09636.0179.00716.00131.09505.01774.01563.00276.08919.01644.00781.00147.0931.01676.01888.00358.0931.01677.00716.0013.0944.01693.00716.0013.09571.01709.01562.00276.09375.01661.002.00032.097.01693.015.0026.09571.01677.0039.00065.09115.01579.01693.00293.09375.01611.013.00228.08984.0153.00911.00146.09375.016.01888.0031.09376.01578.0039.00065.0905.01514.01823.00293.09114.01514.01953.00325.07943.013.01823.00293.08919.01449.02344.00374.18489.02995.02084.00326.09179.01448.015.00244.08138.01286.01953.00309.09245.01433.01627.0026.09441.01465.0013.00016.097.015.01433.00212.09635.01481.00846.0013.0892.01351.01627.00228.09375.01416.01563.00228.09114.01351.00586.001.0931.01367.02083.00309.09441.01367.00455.00082.0918.01334.01693.00244.09375.01335.01562.00228.08333.01172.01628.00244.0918.01286.01953.00276.09505.01335.00391.00049.09179.01286.01888.00244.0931.01286.01563.00211.08594.01172.01237.00163.0957.01286.015.00211c.06446.00847.12956.01726.19336.02556l.01888.00244.09505.01253.00912.00114.09049.01172.013.00179.09766.01237.01042.0013c.0651.00846.13216.01676.19726.02507l.01758.00211.09636.01205.0052.00065.09245.01139.01563.00195.0931.01123.01823.00228.09244.01107.00391.00065.09635.01139.01953.00228.19206.02263.01693.00195.09635.01107.01042.00114.09375.01074.00911.00114.09506.01074.01823.00212.19531.02164.01432.00147.09766.01074.00846.001.09766.01041.00521.00065.099.01058.015.00147.19791.02083.01237.0013.10092.01042.00195.00016.09766.00993.01236.00114.09766.00993.013.00114.09831.00976.00065.00017.09766.00944.01823.00179.0957.00928.00976.001.0918.00863.013.0013.097.00911.015.00147.09375.00863.00521.00048.097.00879.01823.00179.09766.00879H98.957l.09961.00895.01237.001.09831.00863.01172.001.09375.00814.00846.00082.097.00813.01757.00147.09766.0083h.00065l.09635.008.01954.00163.09179.00749.02214.00179.08138.00651.01562.00114.09571.00765.01692.0013.19662.01514.01758.0013.09635.00716.01042.00082.09049.00667.015.00114.09505.00683.01888.00131.08854.00634.01042.00082.09635.00667.01823.0013.09635.00668.00847.00048.09375.00635.013.00082.097.00651.01693.001.0918.006.00716.00049.099.00635.01627.001.09766.006.00716.00049.08985.00553.02148.0013.0931.00554.01823.00114.08854.0052.01107.00049.09765.0057.01693.001.09831.00553h.002l.09635.00537.01823.001.09571.005.01432.00082.08984.00472.013.00065.09766.005.01628.00082q.09862.00487.19726.0096l.01888.001.09636.00455.013.00049.08724.00407.01823.00082.09765.00439.01237.00049.09636.00423.00586.00033.097.00406.02018.00082.09375.0039.01888.00066.08269.00325.01953.00081.0944.00359.02083.00081.08334.00309.01562.00065.0931.00326.02474.001.0944.00326.00651.00016.09049.00309.02344.00066.09375.00309.01628.00049.084.0026.02019.00065.09309.00277.02084.00049c.06575.002.13216.00374.19791.00553l.01628.00049.09961.00244.00911.00033.09375.00227.013.00033.09571.00228.02148.00049.0944.002.00326.00016.09505.002.02539.00048.0944.0018.01237.00032.08594.00147.02148.00048.09375.00163.02019.00033.08919.0013.01107.00016.0957.00147.02148.00032.09636.00114.00976.00016.0905.00114.01953.00017.0931.001.02409.00033.082.00081h.01627l.09375.00082.02409.00016.09636.00065h.0039l.0931.00065h.02279l.09505.00049h.01628l.08789.00032h.01627l.09571.00017.02018.00016h.09831A85.33339,85.33339,0,0,0,192,106.66667h0v-.20834l-.00065-.09131v-.10839l-.00065-.00537v-.1141c-.00065-.02734-.00065-.0542-.00065-.08154v-.0127c-.00065-.029-.00065-.0581-.00065-.08707l-.00066-.02686c0-.02572,0-.05143-.00065-.07731v-.01432l-.00065-.0879-.00065-.02539-.00065-.08154v-.01025c-.00065-.03011-.0013-.06006-.0013-.09017l-.00065-.02409-.00065-.07552-.00065-.01774c0-.02946-.00066-.05778-.00131-.08724v-.02572l-.0013-.07389v-.01937l-.00195-.08675v-.02637l-.002-.07357v-.01823l-.002-.088v-.0249l-.00195-.07455v-.01822l-.00195-.08773-.00066-.02539-.00195-.07373-.00065-.0184-.00195-.0887-.00065-.02181-.002-.077v-.01822c-.0013-.029-.00195-.05713-.0026-.08594l-.00065-.02865-.002-.06624-.00065-.02588c-.00065-.02767-.0013-.055-.0026-.08284l-.00065-.03191-.00195-.06331-.00066-.02718c-.0013-.02832-.00195-.0555-.0026-.08382l-.0013-.03028-.002-.06152-.0013-.03044c-.00065-.02718-.0013-.05371-.0026-.08089l-.0013-.03336-.002-.05746-.00065-.03483-.00325-.07861-.0013-.03548-.002-.05583-.0013-.03369-.00326-.07959-.0013-.035-.00195-.05566-.0013-.036c-.0013-.026-.00261-.05208-.00326-.07812l-.002-.03581-.00195-.05388-.00131-.03613-.0039-.07829-.0013-.03466-.00261-.05827-.0013-.03239-.00391-.07861-.0013-.03858c-.0013-.01644-.00195-.03239-.0026-.04883l-.002-.04036-.00325-.0752-.00195-.03938c-.00131-.01693-.002-.03467-.00261-.05176l-.00195-.03679-.00391-.07845-.00195-.0358-.00261-.05144-.00195-.03938-.0039-.07455-.002-.04118c-.0013-.016-.00195-.03222-.0026-.04817l-.00261-.04086-.0039-.07324-.00261-.04606-.00195-.03792-.0026-.04834c-.002-.02328-.00326-.04672-.00456-.07l-.00261-.04818-.00195-.03694-.00325-.05013-.00391-.06934-.00326-.047-.00195-.03694-.00325-.04981-.00326-.05534-.00391-.06038-.0026-.03939-.0026-.04867-.002-.02522c-.002-.03109-.0039-.06527-.00651-.09636l-.0013-.02816-.00391-.05485-.00065-.0096-.00781-.11149-.0013-.027-.00391-.0555-.0013-.01562c-.002-.03386-.00521-.07178-.00716-.1058l-.002-.02457c-.00391-.05941-.00847-.12028-.013-.17969l-.00131-.02409-.01367-.18522-.0013-.01335-.00456-.062-.00065-.00374-.00911-.12061-.00131-.01839c-.0052-.06494-.00976-.12761-.015-.19238l-.00065-.00554-.01563-.19287-.0013-.01253c-.00521-.06478-.01107-.132-.01627-.19678v-.00228c-.00586-.06754-.01107-.13069-.01693-.19808l-.00065-.00569c-.00586-.06755-.01172-.13168-.01758-.19906v-.002c-.00651-.06755-.01237-.13282-.01823-.2002l-.00065-.00228c-.02474-.26969-.05078-.53776-.07813-.8068v-.00065q-.43359-4.26928-1.27929-8.4069l-.00065-.00082c-.00391-.02164-.00847-.043-.013-.06477v-.00049l-.02539-.12386-.002-.00879-.03906-.18815-.0013-.00586-.03906-.187-.002-.009-.013-.06119-.00065-.00391-.02474-.11719-.00325-.01383c-.00391-.01905-.00782-.03809-.01237-.057l-.00326-.015-.02279-.10824-.00325-.01448c-.00391-.01612-.00912-.04021-.01237-.05632l-.00391-.01888-.02213-.10189-.00391-.01741-.01237-.056-.00391-.01807-.02148-.09863-.00521-.02376-.01172-.05111-.00651-.02832-.01823-.08464-.00716-.03141-.01041-.04688-.00847-.03629-.01692-.07682-.00782-.034-.01041-.04688-.00912-.03759c-.00521-.02425-.00911-.04232-.015-.06657l-.01042-.04476-.00911-.04134-.01107-.0472-.01107-.04916-.01367-.06038-.00781-.03223-.01368-.05908-.00716-.03141c-.00586-.0236-.01106-.04818-.01692-.07178l-.00651-.02734c-.00521-.02312-.01042-.04639-.01628-.06934l-.00326-.01611c-.00716-.028-.01367-.05583-.02018-.08382l-.00456-.01937c-.00651-.02849-.013-.05648-.02018-.08513v-.001c-.00716-.02946-.01432-.05908-.02083-.08871l-.00391-.01627c-.00716-.02751-.01367-.055-.02018-.08252l-.0013-.00586-.02149-.09-.0026-.01074-.04492-.18587-.00065-.00049q-.61914-2.54346-1.38867-5.02572a21.34177,21.34177,0,0,0-20.3711-15.0249Z" style="fill:#5e7599"/><path d="M189.82031,211.15345c66.19011-66.1914,139.92709-99.77213,164.69531-75.0039v.0013L400.79688,89.8696c-56.069-18.07292-150.57813,21.55208-230.64323,101.61718S50.46354,366.0597,68.53646,422.13l46.28125-46.28125C90.04948,351.08053,123.62891,277.34356,189.82031,211.15345Z" style="fill:#ffea21"/><circle cx="256" cy="277.33314" r="149.33333" style="fill:#ffa300"/><path d="M390.40951,287.238a10.661,10.661,0,0,0-9.15625,5.17968,320.83763,320.83763,0,0,1-28.57748,40.23975l-.00195.00212q-.38282.4602-.76823.91894l-.00195.00228c-.10157.12126-.20508.24447-.3073.3654l-.00195.00276c-.05078.06055-.10026.11931-.15169.17985l-.00261.00326c-.09961.11833-.20052.23812-.30078.35612l-.01562.01855c-.09961.118-.19987.236-.29948.35384l-.00912.01058-.14518.17139-.00651.00732c-.10221.12061-.19857.23357-.30078.354l-.01693.0192c-.10026.11768-.19791.23275-.29882.35026l-.013.01514c-.04622.05469-.08724.10238-.13411.1569l-.02148.02539c-.09831.11459-.19532.22836-.29362.34294l-.02279.02588-.13737.16032-.00912.01025c-.04882.05713-.10156.11849-.151.17578l-.01041.01172-.138.16032-.01954.02279q-.14745.17163-.29622.3431l-.02344.027-.1237.14307-.028.03206c-.04688.0542-.09635.11117-.14323.16553l-.01888.02181c-.04232.049-.084.09636-.1263.14518l-.03255.03776c-.04753.05437-.0931.10677-.14.161l-.0026.0031c-.04948.057-.095.10872-.14453.16569l-.03255.03727c-.04037.04606-.07943.09147-.1198.13753l-.02734.03158c-.04753.0542-.097.11116-.14453.16536l-.01888.02116c-.04232.04883-.082.09424-.125.1429l-.03581.04151-.1224.13948-.02343.0267c-.04753.0542-.09375.1066-.14128.16064l-.0345.03939c-.03776.04313-.07618.08675-.11394.13l-.03385.03858-.14323.16276-.01693.01937c-.043.0485-.08138.09163-.12369.14013l-.04558.05111c-.03776.04313-.07812.08871-.11588.13184l-.02409.02734c-.04557.05127-.09636.10905-.14193.16016l-.03711.04215-.10742.12142c-.01367.015-.03125.035-.04427.05-.04557.05111-.09245.104-.13737.155l-.02474.02734c-.04036.04574-.07617.08577-.11654.13151l-.04882.05518c-.03386.03759-.06836.07682-.10157.11442l-.043.04785c-.04557.05111-.09179.10286-.13671.15381l-.03972.04427c-.03385.0376-.06836.0765-.10156.11393l-.05143.05762c-.041.04557-.082.09179-.12305.13737l-.02474.02815c-.04362.04834-.08724.0975-.13086.14568l-.04883.05517c-.03385.03744-.0638.07129-.09765.10873l-.04818.05354-.13021.14551c-.02018.0223-.03515.03858-.05469.06087-.03125.03483-.05989.06608-.09114.10091l-.05664.063-.09245.10336c-.02734.02978-.04492.04948-.07161.07926-.03581.04-.071.07845-.10678.11849l-.05924.06576c-.0293.03206-.056.062-.08529.09407l-.06119.068-.12631.13982-.05989.06559c-.026.0293-.05274.05875-.07943.08805-.02669.02962-.04167.04639-.069.076l-.07682.085c-.0267.02962-.069.07617-.09636.1058-.02864.0319-.05924.06591-.08854.09781l-.07552.08285c-.02409.02653-.04427.04915-.069.07585l-.06771.07454-.0918.10107c-.03385.03695-.06575.07162-.099.10857-.02474.02653-.05144.056-.07552.08252-.0267.02962-.04362.04785-.071.07747-.02148.02376-.04883.05338-.07031.07731-.02734.02946-.05078.05566-.07813.08512-.03841.04248-.07552.08285-.11458.12533l-.07161.07861c-.02214.02393-.04753.05127-.069.0752-.02735.02946-.04818.05208-.07487.08154l-.07943.08643-.10807.11784c-.02474.02653-.04753.05192-.07227.07845-.02669.02946-.05078.05517-.07747.08447-.02214.02392-.04362.047-.06511.0708-.02734.0293-.04817.05192-.07487.08122l-.12174.13167c-.02669.02946-.04558.05-.07292.07926-.02474.02637-.04427.04769-.06836.07406-.02734.02946-.04622.04981-.07291.0791l-.07292.07845c-.04037.04411-.07617.08252-.11719.12647l-.07552.082c-.02083.02213-.054.0581-.07422.08008-.02213.02376-.04232.04508-.0638.06884l-.07878.0848-.05794.06234-.14518.15641-.05339.05681c-.02669.02929-.06054.06526-.08789.0944-.01692.01855-.02929.03206-.04687.05045-.054.05843-.10742.11556-.16211.174l-.043.04623c-.03451.03662-.05339.057-.08724.09342-.01758.01839-.03516.03744-.05208.05583-.03451.03646-.05534.05892-.0892.09538l-.01692.01806-.19336.20671-.03907.0415-.09179.09766-.04623.04932c-.06836.07275-.13151.13981-.19987.21272l-.0052.00521c-.03386.03646-.06316.06738-.097.10368l-.03906.041c-.03386.03645-.06185.06608-.09636.10253l-.02474.026c-.06119.06543-.12955.13785-.1914.20328l-.0319.0337c-.03451.03645-.06511.06852-.099.105l-.0332.0345c-.11.11621-.20769.21973-.31771.33578l-.0293.03108-.10352.10873-.01432.01546c-.069.07243-.14583.15348-.21484.22591l-.01367.014c-.03451.03629-.07357.07763-.10808.11377l-.01953.02067c-.11068.11588-.22265.23323-.33333.349l-.02018.02164-.10873.11377-.01172.01172-.22135.23128-.00977.01042c-.03515.03613-.07291.07585-.10742.11182l-.02344.02441c-.11067.1154-.22591.235-.33658.35026l-.01368.01416c-.153.15837-.31185.32341-.46484.48161l-.02018.02051c-.15951.16536-.3086.31933-.4694.48437l-.00131.002c-.11848.1219-.24023.24707-.35937.36881l-.0013.00147c-.27865.28629-.5599.57389-.8405.85937l-.00521.00537c-.15364.15707-.32617.33236-.48112.48893l-.0013.00163a320.90721,320.90721,0,0,1-80.69987,59.56787,10.66667,10.66667,0,0,0,9.86068,18.91765A342.2061,342.2061,0,0,0,399.54557,303.39453a10.66885,10.66885,0,0,0-9.13606-16.15657Z" style="fill:#f98b00"/><path d="M367.31836,180.252a42.681,42.681,0,0,0-40.0931,28.07438q-2.03028,5.57276-4.33333,11.01628v.00081c-.29948.70818-.60677,1.42465-.91341,2.1294l-.002.00472-.0664.15218-.00651.01611-.06381.14551-.00911.02165c-.02083.04687-.04037.09114-.06055.138l-.01367.03109c-.02018.04687-.04036.09212-.06055.139l-.00911.02019-.06445.14632-.00651.01513-.06706.15251-.002.00521c-.02214.05045-.04688.10531-.069.15576l-.00651.01514c-.18945.42871-.37695.85091-.56836,1.27832l-.00781.01709c-.02278.05029-.04036.09-.06315.1403l-.01107.02441c-.01888.04313-.03841.0861-.05794.12923l-.01758.03923-.05729.12679-.01693.03695-.05338.1193-.02409.05241c-.01628.0358-.03581.07894-.05143.11474l-.02149.0472c-.01823.03939-.0358.07845-.05338.11784l-.02214.04867c-.01823.03939-.0358.07894-.054.11832l-.01954.0433c-.01822.03939-.0371.08138-.05533.12077l-.02149.04769c-.01823.03938-.03581.0791-.054.11849l-.01954.04231c-.01757.03939-.03776.08252-.05533.12191l-.02019.04362c-.01953.043-.03645.08008-.05664.12305l-.01562.034-.05925.12989-.015.03206q-.17481.38087-.35156.76107l-.00977.02213c-.01823.03923-.03646.07715-.05469.11638-.00586.01351-.01757.03857-.02409.05208-.01627.03565-.03255.07-.04882.10563-.00977.02019-.01953.041-.02865.0612l-.04492.09587-.0332.07145-.04493.0957c-.00911.02018-.02278.04964-.03255.06983l-.04362.09407c-.00976.02018-.02409.05062-.0332.0708l-.04623.09782-.03124.0669-.04428.09456-.0345.07243-.04492.09538c-.00912.02018-.02409.05175-.03386.07177l-.04166.08806-.03842.08186c-.01367.02833-.02669.05665-.04036.08513-.01237.02669-.02734.05794-.04036.0848l-.03646.07731c-.01237.02669-.0293.06234-.04232.08919l-.03776.07926c-.01563.03337-.026.05551-.04232.089l-.03515.07455c-.01628.03337-.028.05778-.04362.09131l-.03646.07633c-.01888.0402-.03907.0822-.0586.1224l-.01888.04036c-.026.05355-.05273.11019-.07877.16358l-.0293.06168c-.01628.03337-.03581.07438-.05143.10775-.00912.01774-.015.03011-.02344.04785-.01888.04-.03711.07764-.05664.11768l-.026.05436c-.01888.04-.03516.0734-.05469.11344l-.028.05827c-.01628.03337-.03321.0695-.04948.10287-.01172.02474-.02279.0472-.03516.07194-.01237.02669-.03255.06819-.04557.09489l-.03451.07063c-.01562.03337-.02864.05925-.04492.09261l-.03581.07487c-.01627.03337-.02864.05811-.04427.09148l-.03711.07519-.04166.08561-.03972.08236-.04232.0861-.0358.07422-.04688.09538c-.01041.02116-.02278.04606-.03255.06722-.01953.04-.03255.06575-.05208.10563-.01042.02132-.01823.03694-.028.05794-.02018.04-.0332.06657-.05273.10645l-.0293.05989-.056.11475c-.00911.01758-.01562.03109-.02409.04866-.02278.04655-.043.08692-.06575.1333l-.015.03028c-.13737.27913-.27474.556-.41341.83447l-.01432.02913c-.02018.03988-.04753.09457-.06706.13428l-.02213.04378c-.01953.03972-.04037.08171-.06055.12142-.00716.01416-.01562.0306-.02214.04476l-.06054.12012c-.00847.01758-.01563.03223-.02474.04964-.02018.03988-.03711.07406-.05729.11377l-.02735.05453c-.01627.033-.03776.07568-.05468.10872l-.02865.05778-.05664.11165-.02409.04786c-.01953.03971-.041.08138-.06055.12109l-.02278.04411c-.01953.03955-.043.0848-.0625.12451-.00586.01042-.01433.02783-.01953.03841l-.06576.12956-.01823.036c-.02669.05289-.04752.09326-.07422.146l-.00716.01416c-.02995.05941-.05273.10385-.08333.16325l-.00065.00179c-.168.32992-.34506.6753-.51433,1.00423l-.00195.00359c-.02734.05273-.05729.111-.084.16373l-.002.00326c-.02734.05257-.05468.10612-.082.15869l-.00976.01888c-.02409.0459-.05078.09847-.07487.14437l-.01368.027c-.02408.04589-.04687.09-.071.13606l-.01562.03077c-.02409.04606-.04883.09309-.07227.139l-.01237.02279c-.02344.0459-.05078.09847-.07487.14453l-.01042.01921-.07877.151-.00586.012c-.02735.05241-.05469.10368-.082.15625l-.00456.00863c-.34635.66195-.70182,1.33333-1.05469,1.99153v.00082A235.57314,235.57314,0,0,1,198.7513,343.91016a42.66678,42.66678,0,0,0,33.60352,78.43864A321.36942,321.36942,0,0,0,407.4043,237.53434,42.69591,42.69591,0,0,0,367.31836,180.252Z" style="fill:#f98b00"/><path d="M320.71354,140.34245a21.30992,21.30992,0,0,0-24.39193,17.75521,191.17812,191.17812,0,0,1-41.13151,91.58593l-.0013.00131c-.05989.07291-.12239.14843-.181.22135l-.0026.0013c-.08985.11068-.181.22005-.27214.33073l-.0026.00391q-.68749.83007-1.38281,1.65364l-.00391.00521c-.0612.07162-.1237.14584-.18359.21745h-.00131c-.30989.36719-.62109.72917-.93489,1.09375l-.0013.0013c-.10157.11849-.20183.23568-.30469.35417a21.33314,21.33314,0,1,0,32.26562,27.91667,233.89836,233.89836,0,0,0,54.28516-116.75131A21.33283,21.33283,0,0,0,320.71354,140.34245Z" style="fill:gold"/><path d="M170.22786,310.36068a21.319,21.319,0,0,0-6.35416.97265c-.01823.00521-.03646.01042-.05469.01693-.02344.00651-.056.01693-.07943.02474-.02474.00651-.04948.01432-.07422.02214l-.07161.02343-.07813.02344c-.02343.00781-.04947.01563-.07291.02214-.026.00911-.05209.01692-.07943.02474-.01693.0052-.04818.01562-.0664.02083-.02735.00781-.05469.01693-.082.02474-.02474.00781-.043.013-.0664.02083-.02865.00912-.05729.01693-.08594.026-.01172.00391-.03516.01172-.04688.01433-.11848.03645-.237.07291-.35416.10807l-.03255.01042c-.03386.01041-.069.02083-.10417.03125l-.043.013c-.03385.01041-.0651.02083-.099.02994l-.05078.01563c-.03255.01042-.0651.01953-.09765.02995-.01172.0039-.03777.01041-.04948.01432-.03256.01042-.06381.01953-.09766.02995l-.04948.01432-.10156.03125-.03646.01042c-.03776.01172-.07422.02213-.11068.03385l-.02474.00651c-.17708.05339-.35286.10547-.52994.15755l-.02084.00651-.11979.03516-.026.00781c-.03776.01172-.07682.02214-.11459.03386l-.03515.01041c-.03776.01172-.07552.02214-.11328.03386a.167.167,0,0,0-.02735.00781c-.04036.01172-.08073.02344-.12239.03516l-.01563.00521c-.27474.07942-.54817.15885-.82291.23828l-.026.00781c-.04036.01172-.08072.02344-.12109.03385l-.02213.00651c-.04167.01172-.082.02344-.1224.03516l-.02344.00651c-.04166.013-.08463.02474-.1263.03646l-.01042.0026-.13411.03907-.00521.0013q-.42187.11915-.84375.237l-.013.0039c-.043.01172-.08724.02474-.13151.03646l-.01172.00261c-.04427.013-.08854.02474-.13281.03776l-.01042.0026q-.49218.13673-.987.27083l-.01041.00261c-.04428.01172-.08724.02344-.13152.03646l-.01432.0039q-6.77734,1.832-13.74479,3.17839a21.33291,21.33291,0,1,0,8.069,41.89583,234.20822,234.20822,0,0,0,25.30729-6.35937,21.33674,21.33674,0,0,0-6.34245-41.70573Z" style="fill:#ffa300"/><path d="M275.62305,130.71175a21.337,21.337,0,0,0-21.097,18.35368,149.2438,149.2438,0,0,1-58.151,98.33073l-.0013.001c-.12044.09049-.23438.1761-.35482.26611l-.00911.00667c-.02735.02067-.056.04216-.084.06283l-.00065.00065c-.14844.11068-.29948.22282-.44792.33317l-.00325.00211c-.12044.08952-.23633.175-.35742.26417l-.00456.00325c-.15234.11214-.29688.21842-.44987.32992l-.00065.00048c-.14974.10938-.30013.21875-.44987.32748l-.00586.00407c-.0905.06575-.179.12988-.27018.19531l-.00131.00114c-.028.02034-.05664.041-.08528.06136l-.00977.00716-.084.06055-.00326.00211c-.08789.06315-.18034.1294-.26823.19222l-.013.00961-.07552.054-.013.00912c-.02474.01806-.05273.0376-.07747.05566l-.01107.008-.17578.125-.01563.0109c-.02148.01563-.05208.03695-.07356.05257l-.015.01058-.07357.05192-.01562.0114-.08073.057-.00586.0044-.17969.127-.00781.00521-.07943.05615-.01562.01107-.07422.05192-.01432.01025-.07487.05257-.015.01058c-.05989.04216-.11458.08041-.17448.1224l-.01627.01156c-.02539.01774-.05078.03515-.07552.05273l-.01237.00846-.07748.0542-.01237.00847c-.05989.042-.11784.08235-.17838.12418l-.01172.00814c-.02474.01758-.04753.03337-.07292.051l-.02474.01725-.05989.04134-.03255.02262-.0586.04037-.02474.01725c-.05729.03955-.11719.081-.17448.12044l-.01888.01319-.06315.04362-.0332.02278-.05534.03809-.03125.02148-.0599.041-.02539.01741-.084.05778-.02474.01677-.06055.04166-.0345.0236-.054.037-.0293.01986-.06054.0415-.028.01921-.06315.04313-.02344.01579-.082.05582-.03255.02214-.05664.03825-.0332.02278-.04883.03288-.04232.02881-.04036.02751-.04623.03108-.03646.02491-.07617.05127-.05013.03369-.04036.02718-.04492.0306-.04232.02848-.04427.02979-.03972.02669-.04817.03223-.03972.02685-.07422.04964-.01953.013-.07291.04916-.03125.0205-.0573.03825-.03385.02312-.04818.03206-.041.02734-.04623.03044-.04036.027-.08008.05338-.03776.02491-.04687.03108-.043.02865-.043.02832-.04492.03011-.04037.02669-.04362.02881-.04232.028-.10416.06884-.01823.01188-.056.03711-.026.01693-.05274.03467-.03776.02474-.04492.02962-.04232.02783-.043.02832-.04687.0306-.06641.0433-.05338.03532-.04427.02864-.03972.02588-.04622.03027-.041.027-.04622.02995-.03841.0249-.04688.03044-.0345.02246-.097.06331-.03255.02084-.04883.03173-.03776.02442-.04492.02913-.043.02784-.04687.03011-.03125.02018c-.0625.04069-.11784.0765-.181.117l-.03581.023-.05274.03386-.03059.01985-.05469.03516-.02735.01758-.05989.03841-.01628.01042c-.067.043-.13151.084-.19856.12679l-.0293.01871-.056.03565-.02735.01758-.056.03564-.0306.01953-.056.03532-.01693.01091c-.04362.02766-.08854.05631-.13216.08382l-.00977.00651-.05729.03629-.03.01872-.05664.036-.026.01628-.05859.03727-.02149.01351c-.06771.04264-.14062.08854-.20833.131l-.01367.00879-.0599.03727-.028.0179-.05664.03549-.0267.0166-.05794.03646-.02279.01432c-.07161.04476-.14583.09115-.21744.13574l-.00131.00082-.0664.04134-.02214.01367-.0638.03971-.01432.00912c-.09571.0594-.19857.12337-.29427.18245l-.01628.01009-.06575.04053-.01823.01123-.06641.04085-.01237.008c-.07617.04671-.14583.08952-.22135.13607l-.00847.005-.06315.03906-.02278.01368-.05795.03564-.028.01709-.0625.03825-.00912.00553c-.07617.04639-.15429.09424-.23047.14063l-.00065.00032-.07552.04606-.00586.00342-.07422.04541-.00716.00423c-.12825.078-.26041.15788-.38932.23536l-.00781.00472-.07162.04329-.01107.00667c-.10416.06283-.20052.12061-.30533.18327l-.00912.0057-.07291.04329-.00782.00489c-.13346.07942-.25781.1538-.39127.23291l-.00651.00406-.07683.04558-.00195.00081c-.12891.07666-.26758.15869-.39714.23486l-.00325.002a148.35562,148.35562,0,0,1-54.29883,19.03222,21.33334,21.33334,0,0,0,6.11589,42.22608c83.91471-12.03972,150.79883-79.07438,162.65039-163.01563a21.35148,21.35148,0,0,0-21.15039-24.31852Z" style="fill:#ffbe00"/><ellipse cx="181.33333" cy="202.66667" rx="36.45007" ry="26.81645" transform="translate(-90.19567 187.58172) rotate(-45)" style="fill:#ffbe00"/><path d="M400.79688,89.8696l-46.28126,46.28125c24.76823,24.77083-8.81119,98.5039-75.0026,164.69531-66.1901,66.19141-139.92708,99.77083-164.69531,75.0026L68.53646,422.13c3.33073,10.33464,8.39193,19.51693,15.77083,26.89584,47.41146,47.41146,162.71615,8.97656,257.53906-85.84636,94.82292-94.82422,133.25782-210.1276,85.84636-257.53906C420.3138,98.26152,411.13151,93.20033,400.79688,89.8696Z" style="fill:#ffea21"/><path d="M371.04167,106.88542l-.11654.00016h-.03971l-.03711.00016h-.03972l-.04362.00016h-.03385l-.043.00017-.03646.00016-.03646.00016-.041.00017-.041.00016-.03646.00016-.03906.00016-.04036.00033-.03906.00016-.03842.00033-.03906.00016-.03906.00033-.03971.00032-.03842.00033-.03906.00032-.03971.00033-.041.00032-.03581.00033-.03971.00049-.041.00032-.03711.00049-.041.00033-.03646.00049-.04232.00048-.03841.00049-.03841.00049-.03841.00049-.04232.00049-.03646.00049-.043.00065-.03386.00048-.04427.00066-.03646.00048-.043.00065-.0332.00049-.04818.00082-.0306.00049-.05078.00081-.026.00049-.05143.00081-.02995.00065-.04883.00082-.02864.00048-.054.00114-.02539.00049-.06966.0013-.00651.00017-.06836.0013-.01237.00032c-.10612.00228-.21159.00456-.31836.00717l-.00651.00016-.15365.00374h-.0039l-.1543.00407-.01172.00033-.071.002h-.002l-.07552.00212-.01106.00032-.07162.002-.00325.00017-.07292.00211-.01563.00049-.0651.00195-.013.00033-.069.00212-.00781.00032-.07292.00228-.00716.00016-.07031.00228-.013.00049-.06967.00228-.00781.00016-.07357.00244-.0052.00016-.07683.00277h-.0026l-.07292.00261-.01172.00032-.069.00261-.01041.00032-.07292.00261-.00521.00016-.1595.006h-.00066q-5.57031.2129-11.41536.98079l-.00781.001-.07487.00993-.01888.00244-.0625.0083-.02995.00391-.05469.00732-.02734.00358-.05534.00733-.0332.00455-.04948.00651-.03776.00505-.043.00586-.04557.00618-.03711.00489-.04688.00651-.0345.00456-.05274.00716-.0293.00407-.054.00748-.02735.00358-.06119.00847-.01953.00276-.06055.0083-.02409.00326-.0625.00863-.01693.00244-.06836.00944-.01041.00146c-1.49935.20931-3.01563.4458-4.53907.70768a10.66668,10.66668,0,0,0,3.65039,21.01872,104.81431,104.81431,0,0,1,17.60743-1.60921,10.66667,10.66667,0,0,0,0-21.33333Zm44.17317,56.79573a10.669,10.669,0,0,0-10.58073,9.42725,152.22987,152.22987,0,0,1-6.99739,30.03076c-14.16146,42.48275-44.68555,88.60449-85.95117,129.86963-51.52084,51.52132-114.57878,88.05371-160.64649,93.07047a10.66661,10.66661,0,1,0,2.30925,21.20785c47.06575-5.12549,107.19661-37.55957,160.1289-86.42025l.00782-.00732c.44856-.41406.89-.82324,1.33789-1.23975l.00586-.00586c.224-.20817.43945-.409.66276-.61784l.00846-.00765c.05534-.05224.10417-.09765.16016-.1499l.00716-.00683.16015-.14942.00977-.00944c.21615-.20247.44141-.4139.65755-.617l.00977-.00879c.05534-.05241.10547-.09912.1608-.15153l.00521-.0044c.05209-.04915.10287-.09733.1556-.14664l.02084-.01986.15234-.14339.00846-.00814c.05274-.04932.10808-.10173.16016-.151l.00586-.00537c.056-.05257.10677-.10091.16276-.15349l.00065-.00065.1569-.1486.01563-.01465.153-.14453.01432-.014c.04883-.04607.10612-.09994.1543-.146l.01367-.01286.15821-.15006.00325-.00293c.16667-.15837.32813-.31153.49479-.47006l.00521-.00488.15495-.14746.01693-.01595c.04882-.04639.10091-.09619.14973-.14242l.01954-.01871c.04817-.04639.10156-.097.14974-.14323l.01692-.01579c.05209-.04964.10026-.096.15235-.14567l.013-.012c.10351-.09929.21224-.20313.3164-.30274l.01172-.01123c.05534-.05306.10482-.10026.16016-.15348l.00456-.00391c.05143-.0498.10612-.10172.15755-.15153l.013-.012c.04818-.04655.10351-.09961.15234-.14616l.01823-.01774c.04883-.04655.099-.09473.14714-.14128l.02343-.02213c.16277-.15642.31771-.30551.47982-.46208l.00521-.00488c.05143-.05.10156-.09766.153-.14763l.01953-.01855c.05143-.05.10351-.09994.15494-.1499l.00456-.00456c.05534-.05339.10547-.10124.16016-.15462l.00911-.00847.15821-.15283.00781-.00781c.04818-.04688.10482-.10124.153-.14811l.01758-.01677.14193-.13769.01953-.019c.04818-.04687.09961-.09635.14779-.14323l.02018-.01985c.04818-.04688.097-.09408.14518-.14112l.02279-.022.14453-.14046.02409-.02344c.05208-.05029.0957-.0931.14778-.14339l.01107-.01107c.10677-.104.2155-.20963.32227-.3138l.002-.00179c.05143-.05046.09766-.09538.14909-.14583l.02409-.02312.14323-.14.02343-.023c.04818-.047.09636-.09456.14453-.1416l.02149-.02051.14779-.14486.01692-.0166c.05144-.05045.09831-.09668.15039-.14713l.01368-.01384c.10351-.10123.20638-.20247.30989-.30371l.01628-.01627.153-.15023.01172-.01123c.05143-.05062.0931-.09212.14518-.14274l.02995-.03011c.04492-.04395.09831-.09636.14258-.1403l.01628-.01579.14973-.14762.01628-.01579.30729-.30355.01563-.0153c.05143-.05078.0957-.09489.14713-.14583l.01953-.01937c.04818-.04737.097-.09571.14519-.14323l.02278-.02246c.04753-.04753.09766-.09733.14584-.14486l.01757-.01725c.04818-.04753.09766-.097.14584-.14453l.02539-.02523c.04427-.04427.09765-.097.14193-.14111l.02083-.02035c.04752-.04752.08724-.08659.13476-.13411l.02279-.0223c.04753-.04769.09375-.09326.14128-.14095l.02343-.02328c.04493-.04427.09571-.09489.14-.13916l.0293-.02913c.04752-.04769.08789-.0874.13541-.13509l.03255-.03223.13737-.13753.02409-.02344c.04753-.04769.09636-.09619.14388-.144l.01758-.01758c.05143-.05111.10026-.10026.15169-.15153,43.5625-43.56234,75.91667-92.646,91.10417-138.20833l.04362-.1307.015-.04492.0293-.08822c.00521-.01693.01042-.0319.01628-.049.00911-.029.01888-.05827.02864-.0874l.015-.04492c.01106-.03418.02278-.06836.03385-.10254l.00977-.02979c.01432-.04313.02864-.08773.043-.13086l.01236-.03629.03125-.09522.015-.04655c.00976-.03043.01953-.05989.02995-.09049l.01367-.04264.0332-.10075.00977-.0306c.02929-.08985.05924-.18083.08854-.27067l.00781-.02425.03516-.10808c.0039-.0122.00716-.0236.01172-.03564.01041-.03337.02148-.06771.03255-.10108l.01107-.03515.03906-.11931.00325-.01188.04493-.138.00325-.01107c.013-.04069.02669-.08186.03971-.12255l.00977-.03044c.01107-.034.02214-.068.03255-.10221l.01237-.03695.03386-.1071.00846-.0249c.0293-.0918.05794-.182.08724-.2736l.00391-.01237.03776-.12028.00911-.02848c.01237-.0376.02409-.07552.03581-.11312l.00651-.01969c.04362-.13737.08659-.27328.12956-.41049l.00651-.02083c.01237-.03841.02408-.07715.03645-.11556l.00717-.0236.03906-.12451.0026-.00781c.0293-.09359.0586-.187.08724-.28044v-.00016c.01433-.04476.028-.08854.04167-.13347l.00586-.01741c.01237-.04118.02474-.08057.03776-.12175l.00456-.016c.043-.13753.08528-.276.1276-.41325l.00326-.01041c.013-.04248.026-.08561.03971-.1281l.00325-.01106q.085-.27735.16927-.55436l.002-.008q.10644-.34815.21028-.69564l.00131-.00374q2.291-7.64283,3.8125-14.86556v-.00049c.028-.13232.05534-.264.08333-.39616v-.0013l.02669-.12695.0013-.0083q.05371-.25782.10612-.515l.00391-.01986.02279-.11018.00325-.01758.02539-.12435v-.00016c.01758-.08562.03451-.172.05209-.25749l.00325-.01693.02149-.10677.0052-.026c.00651-.03483.01368-.06836.02019-.10319l.00455-.02214c.01693-.08349.03321-.16569.04948-.249l.00521-.02637c.00651-.03206.013-.0651.01888-.09733l.00651-.03385c.00651-.03076.01237-.061.01823-.0918l.00651-.03174.01953-.10188.00456-.02181c.00781-.04151.01562-.082.02409-.1237l.0026-.0166c.00716-.034.01367-.06771.02019-.10173l.00846-.04394.01432-.077.00977-.04915.01367-.07.00976-.05274.013-.06689.01562-.08447.01563-.08073.00976-.05339c.00456-.02181.00846-.043.01237-.06461l.01107-.05876c.0039-.01969.00781-.03988.01107-.05957l.01237-.06315c.0026-.01693.00586-.03418.00911-.05127.00456-.02214.00846-.0446.01237-.06689l.00846-.04525c.00912-.04671.01693-.08773.02539-.13428l.00782-.04313.01367-.07292.00781-.04362.013-.07161.00847-.0433c.00455-.02669.00911-.05159.01432-.07812l.0026-.01644c.01823-.09749.03516-.19141.05274-.28874l.0039-.02246c.00586-.03092.01107-.05973.01628-.09066l.00325-.01774.01758-.09635.00065-.00456q.791-4.4082,1.2819-8.62239a10.66593,10.66593,0,0,0-9.35937-11.78825,10.78133,10.78133,0,0,0-1.25391-.07341Zm-13.18619-48.67383a10.66729,10.66729,0,0,0-6.30079,19.2806,14.605,14.605,0,0,1,1.77019,1.51579,21.49481,21.49481,0,0,1,4.33333,6.52409,10.66672,10.66672,0,1,0,19.49219-8.67009,45.8534,45.8534,0,0,0-3.58073-6.58382v-.00016c-.07813-.11914-.1569-.23714-.23633-.35514l-.0013-.00212-.0319-.0472-.00391-.006-.03125-.04671-.0013-.00147c-.056-.08268-.112-.16471-.168-.24691l-.00456-.00651-.0306-.04459-.00455-.00651-.03125-.04493-.00391-.006c-.05664-.08154-.11263-.16211-.16992-.24316l-.00261-.00358c-.00976-.01481-.02083-.02979-.03125-.0446l-.0052-.00765-.0306-.04378-.00521-.00651-.03125-.04476-.002-.00293c-.04558-.0638-.0905-.12744-.13607-.19092l-.00521-.00651-.0293-.04134-.00781-.01058-.02865-.04-.00846-.01139-.0293-.04037-.00651-.00878-.0306-.04232-.0013-.00179c-.03385-.047-.06836-.09408-.10286-.141l-.00391-.0057-.02864-.03923-.00977-.01318-.028-.03776-.00977-.01351-.02734-.03678-.01107-.01449-.028-.03776-.0052-.00765-.09961-.13314-.00521-.007-.0306-.04069-.00716-.00944c-.00912-.01286-.01953-.026-.0293-.0389l-.00911-.01286-.02865-.0376-.00911-.01221-.02865-.03792-.01042-.01318-.02864-.03744v-.00081c-.02344-.03011-.04623-.06039-.069-.0905l-.00456-.00553-.028-.03646-.01106-.01449-.02735-.03548-.01172-.01513-.02669-.03483-.01172-.01547-.028-.03564-.00977-.01286-.02929-.03743-.00456-.00635-.06055-.07764-.01042-.013-.02408-.03092-.015-.01888-.02539-.03223-.01432-.01839-.02539-.03255-.01367-.01677-.0267-.03369-.01172-.01546-.02864-.036-.00456-.00537c-.03255-.04135-.06575-.08285-.099-.124l-.01237-.01546-.02474-.03076-.01562-.01986-.02409-.02946-.01628-.02051-.02474-.03027-.01627-.02067-.02279-.02783-.02018-.02442-.02148-.02669-.02019-.02506-.03906-.048-.01953-.02311-.02083-.02588-.02149-.02588-.01953-.02425-.02148-.02555-.02019-.02458-.02148-.02637-.02018-.02441-.02084-.0249-.02083-.02523-.02018-.02409-.04427-.05306-.01628-.0192-.02279-.02735-.01888-.0223-.02213-.02636-.01953-.02328-.02279-.02751-.01823-.02164-.02278-.0267-.02019-.02392-.02213-.02555-.02214-.02653-.01888-.02214-.02864-.033c-.01042-.01286-.02214-.02637-.03321-.03906l-.02083-.02425-.02083-.02426-.02149-.02506-.02018-.02311-.02344-.02751-.01953-.02262-.02148-.02507-.02149-.02441-.02278-.02637-.01953-.02246-.02995-.03467-.02735-.03092-.02539-.0293-.02148-.02441-.02149-.02442-.02148-.02474-.02214-.02441-.01953-.02279-.02474-.02783-.01888-.021-.02539-.02864-.01758-.02-.02539-.02848-.0306-.034-.02929-.03288-.01888-.02083-.02409-.027-.02018-.02262-.02409-.02637-.01953-.022-.02474-.027-.01823-.02018-.028-.03142-.01562-.01692-.03125-.03435-.01237-.014-.04362-.04753-.01172-.01253-.0319-.03516-.01823-.01986-.02539-.02766-.01953-.02116-.02539-.027-.01888-.02083-.02735-.02963-.01562-.01676-.03125-.0332-.01432-.01579c-.0293-.03158-.0586-.06234-.0879-.09392l-.01627-.01725-.02865-.03043-.01888-.02-.02409-.026-.02148-.02229-.02474-.02621-.01888-.02034-.02865-.02995-.01562-.01628-.03711-.03873-.00781-.00863-.04492-.04688-.01237-.013-.03321-.0345-.01432-.015-.0306-.0319-.01758-.01774-.028-.02913-.01758-.01807-.028-.02913-.01823-.01839-.03321-.03435-.01106-.01123-.04493-.04638-.01172-.01172-.03515-.03548-.015-.01547-.02929-.02994-.01888-.019-.028-.02848-.01758-.01774-.02929-.02946-.01693-.01676-.0319-.03239-.01367-.014-.04623-.04606h0c-.01888-.01921-.03841-.03858-.05794-.05778l-.01953-.0197-.03776-.03792-.02409-.02393-.0345-.03385-.02474-.02458-.03321-.033-.02669-.02588-.03255-.0319-.02539-.02506-.03581-.03483-.02279-.02246-.05013-.04851-.00846-.00813c-.01888-.01888-.03841-.0376-.05794-.05632l-.02084-.02018-.03906-.03776-.02148-.02067-.03841-.0363-.02279-.02181-.03776-.03646-.02214-.02083-.03841-.03662-.02148-.02018-.04492-.04216-.01433-.01383q-.06151-.05787-.123-.1154l-.00652-.00553c-.01757-.01693-.0358-.03386-.054-.05062l-.01628-.01481-.04622-.04265-.015-.01432-.04752-.04329-.015-.014-.04947-.04525-.01172-.01074-.05534-.05046-.00651-.006q-.12794-.11573-.25586-.2303l-.00651-.00554-.05925-.05273-.00455-.00407-.06185-.05469-.002-.00195q-1.248-1.10034-2.62109-2.104a10.61747,10.61747,0,0,0-6.28385-2.0542Z" style="fill:gold"/><circle cx="362.66667" cy="448" r="42.66667" style="fill:#cf94ff"/><path d="M332.49678,478.16989a42.6665,42.6665,0,0,0,60.33978,0h0l.04638-.04638.017-.017.03027-.03027.01922-.01922.02647-.02739.02071-.02072.02636-.02636.02095-.02186.02543-.02544.02083-.02083.0259-.02681.02094-.021.02544-.02636.02037-.02037.02635-.02727.02014-.02106.028-.028.01749-.01841.03142-.03234.01543-.01543c.01473-.01565.03-.03188.04523-.04707l.01185-.01277c.01116-.01117.02233-.02233.033-.03395l.01991-.02084.02636-.02727.01968-.0206.02566-.02659.02-.02094.02658-.02751.01957-.02049.02451-.02635.02164-.02256.02474-.02566.0198-.02164.0267-.02762.01864-.01957.02808-.02992.017-.01795.02854-.03039.0168-.01864c.01209-.01209.0236-.02452.03522-.03706l.017-.01795.03741-.04017.015-.01588.02923-.032.019-.01991.02544-.02819.02-.021.02567-.02751.01807-.01991.02658-.02935.01865-.01956.02624-.029.0176-.01945.02774-.02958.01715-.019.02946-.03223.01427-.01519.03108-.03475.014-.015c.01116-.013.0229-.02566.03452-.03821l.00944-.01035.04327-.04788.01612-.018.02877-.03154.01554-.01738.02773-.03142.0175-.01933.027-.02981.01715-.019.02647-.03015.01715-.019.02785-.03154.01531-.01714.02808-.03177.01611-.01795.02866-.03234.01473-.01658.02981-.03349.01392-.01576.0358-.04132.00679-.00771c.03015-.03384.05789-.06618.088-.1l.00645-.00829c.01254-.01347.02462-.02739.03671-.04132l.01128-.01312c.01105-.01289.02037-.024.03188-.03648l.01266-.01542c.01047-.0114.0191-.02187.02911-.03372l.01623-.01807.02716-.03177.01519-.018.02694-.03061.01714-.02084.02624-.02992.01577-.01853.02808-.03268.01439-.01715.03268-.03821.00887-.0107.03786-.04431.00529-.00622c.0282-.03372.05674-.06687.08483-.10047l.01185-.01462.02981-.03533.01565-.01841.02612-.03073.01658-.02026.02578-.03038.016-.01968.026-.03154.015-.01772.02819-.03372.014-.0168.0274-.03292.01427-.01795.02842-.034.01358-.01634.03085-.03821.01024-.01208c.01151-.01427.02279-.02831.03476-.04212l.01818-.02279.02877-.03522.018-.02164.02348-.029.01576-.01945.02613-.03165.016-.0206.02347-.029.01876-.02244.02256-.02809.01807-.02267.023-.02854.01669-.02129.025-.0305.01588-.02049.02624-.03268.01324-.01692.02969-.03706.01128-.014c.04132-.05144.08183-.103.12268-.15491l.0053-.00713c.01139-.01416.02256-.02809.0336-.04282l.0122-.015.029-.03729.01162-.01438.02774-.036.01335-.017.02716-.03453.01312-.01772.02635-.03372.01347-.01715.02866-.03694.01081-.0145c.01036-.01312.02084-.02636.03085-.04006l.00886-.0107.034-.045.00564-.00748c.02728-.03556.05352-.06917.08033-.10519l.00288-.0038.03648-.04753.0084-.01116c.01048-.01324.02107-.02751.031-.04109l.00944-.0122.02981-.039.01208-.01577.0267-.03591.01243-.01611.02693-.03614.01209-.01669.02808-.03729.01024-.01392c.01036-.01312.01934-.02578.02924-.03936l.01024-.013.03384-.0458.00425-.00518.11716-.1586.00829-.012.0305-.04155.00817-.01094.03038-.04143.0091-.01277.02934-.0404.00944-.01312.02854-.03867.01059-.01519.02843-.03855.00967-.01336.02969-.04166L397.322,472.9l.03384-.04764.00368-.00461.03568-.04948.00276-.00461c.03833-.053.07688-.10726.11475-.16078l.00587-.00863.03107-.043.00955-.01416.02843-.04039.00829-.011.02946-.04236.00863-.01231.02923-.0412.00817-.01186.02843-.04131.00932-.013.031-.04477.00518-.007c.0625-.09011.12487-.181.18668-.27138l.00368-.00552.03268-.04742.00656-.01024.02924-.043.00851-.01219.02809-.0419.00874-.01243.02751-.04131.009-.01266.02865-.04339.00714-.0099.03245-.049.00311-.004c.04857-.0725.097-.14581.145-.21866l.007-.00979.02855-.04327.0084-.013.02716-.04189.00851-.0122.02809-.04373.00644-.00921c.00967-.01519.01945-.0305.02969-.04534l.00633-.01.03039-.04695.00449-.00633c.01012-.01658.02071-.03269.0313-.0488l.00414-.00691c.07055-.10922.1426-.22085.21188-.33065l.00426-.007.0313-.04879.00334-.0061.03108-.04857.00471-.00748.03016-.04857.00437-.00714.03073-.04822.00391-.00667c.06963-.11106.13892-.22362.20728-.33526l.00115-.00207.03257-.05282.003-.00484.03039-.04972.00448-.00817c.01094-.01738.02037-.03326.03085-.0511l.00184-.00184c.01093-.01922.02118-.03591.03268-.05478l.001-.002c.06859-.11279.13534-.22465.20221-.33847l.00184-.00277c.02175-.03648.044-.07434.06526-.11129l.00092-.00092.03257-.05651.00011-.00011c.0114-.01876.0221-.03683.03292-.05594l.00058-.00149q.13257-.22788.26217-.45644h0l.03234-.0572.00023-.00023q.17747-.31559.34964-.6323v-.00092a42.72309,42.72309,0,0,0-2.69067-44.93593l-.00034-.00057-.03672-.05168-.00345-.00483-.036-.05052-.0015-.00219-.03683-.05156-.0023-.00322c-.07757-.10842-.15479-.21534-.23374-.32329l-.00115-.00161-.03775-.05156-.00346-.00483-.034-.04615-.00817-.01117-.03084-.04189-.00783-.01059-.03084-.04189L397,422.65924l-.03131-.04235-.00667-.009-.033-.04431-.00656-.0091c-.04017-.05374-.08149-.1091-.12188-.16262a10.66665,10.66665,0,0,0-17.04606,12.82736,21.33626,21.33626,0,0,1-32.17279,27.86569,10.66667,10.66667,0,0,0-15.08494,15.08495Z" style="fill:#c175ff"/><circle cx="352" cy="437.33333" r="10.66667" style="fill:#d7a5ff"/><ellipse cx="138.66667" cy="74.66667" rx="20.48097" ry="40.34417" transform="translate(-12.18278 119.9215) rotate(-45)" style="fill:#435e88"/><ellipse cx="106.66667" cy="149.33333" rx="17.92946" ry="24.26189" transform="translate(-74.35267 119.16344) rotate(-45)" style="fill:#33527d"/><ellipse cx="42.66667" cy="106.66667" rx="24.51005" ry="17.58812" transform="translate(-62.92795 61.41183) rotate(-45)" style="fill:#5e7599"/><path d="M74.66667,320S64,320,64,309.33333h0a10.66667,10.66667,0,0,0-21.33333,0h0C42.66667,320,32,320,32,320a10.66667,10.66667,0,1,0,0,21.33333s10.66667,0,10.66667,10.66667h0A10.66667,10.66667,0,1,0,64,352h0c0-10.66667,10.66667-10.66667,10.66667-10.66667a10.66667,10.66667,0,0,0,0-21.33333Z" style="fill:#5cbeff"/><path d="M330.66667,42.66667S320,42.66667,320,32h0a10.66667,10.66667,0,1,0-21.33333,0h0C298.66667,42.66667,288,42.66667,288,42.66667A10.66667,10.66667,0,1,0,288,64s10.66667,0,10.66667,10.66667h0a10.66667,10.66667,0,0,0,21.33333,0h0C320,64,330.66667,64,330.66667,64a10.66666,10.66666,0,0,0,0-21.33333Z" style="fill:#5cbeff"/><path d="M224,234.66667s-10.66667,0-10.66667-10.66667h0A10.66667,10.66667,0,1,0,192,224h0c0,10.66667-10.66667,10.66667-10.66667,10.66667a10.66666,10.66666,0,0,0,0,21.33333S192,256,192,266.66667h0a10.66666,10.66666,0,0,0,21.33333,0h0C213.33333,256,224,256,224,256a10.66667,10.66667,0,1,0,0-21.33333Z" style="fill:#5cbeff"/><path d="M480,362.66667s-10.66667,0-10.66667-10.66667h0A10.66666,10.66666,0,1,0,448,352h0c0,10.66667-10.66667,10.66667-10.66667,10.66667a10.66667,10.66667,0,0,0,0,21.33333S448,384,448,394.66667h0a10.66667,10.66667,0,0,0,21.33333,0h0C469.33333,384,480,384,480,384a10.66666,10.66666,0,1,0,0-21.33333Z" style="fill:#5cbeff"/><path d="M458.66667,170.66667S448,170.66667,448,160h0a10.66667,10.66667,0,1,0-21.33333,0h0c0,10.66667-10.66667,10.66667-10.66667,10.66667A10.66667,10.66667,0,1,0,416,192s10.66667,0,10.66667,10.66667h0a10.66666,10.66666,0,0,0,21.33333,0h0C448,192,458.66667,192,458.66667,192a10.66666,10.66666,0,0,0,0-21.33333Z" style="fill:#5cbeff"/><path d="M288,405.33333s-10.66667,0-10.66667-10.66666h0a10.66666,10.66666,0,1,0-21.33333,0h0c0,10.66666-10.66667,10.66666-10.66667,10.66666a10.66667,10.66667,0,0,0,0,21.33334S256,426.66667,256,437.33333h0a10.66667,10.66667,0,1,0,21.33333,0h0c0-10.66666,10.66667-10.66666,10.66667-10.66666a10.66667,10.66667,0,0,0,0-21.33334Z" style="fill:#5cbeff"/><circle cx="85.33333" cy="64" r="21.33333" style="fill:#adb9ca"/><path d="M119.76042,42.66667c-3.9323,0-7.265,1.11653-9.6211,3.47249h0l-.026.02588-.00911.0096-.01693.0166-.01042.01107-.015.0153-.01107.01123-.01562.01563-.01107.01139-.02083.02148-.013.01368-.015.01595-.01237.01253-.013.014-.013.01383-.01107.01156-.01432.0153-.01042.01106-.05208.05583-.00912.00977-.015.0166-.00911.00976-.01563.01726-.00846.00895-.015.01709-.00781.00846c-.02018.02181-.03906.043-.05859.06511l-.002.00227-.01823.021-.0052.00586-.01823.02051-.00391.00439-.08268.09538-.0013.00179-.01954.02246-.00325.00407-.01953.02295-.00065.00065c-.028.03353-.056.06673-.084.10059v.00016l-.01953.02376-.0026.00326a11.482,11.482,0,0,0-2.00065,3.69889l-.00065.00326-.00977.02946-.002.0052-.03972.12419-.0013.00488-.00911.02816-.002.00684-.00846.02685-.0026.00879c-.01237.03923-.02474.07926-.03646.11865l-.00326.0114-.00716.0236-.00391.01237-.00651.02311-.0039.01367-.00716.023-.00065.00439-.015.05013-.00391.0153-.0052.01823-.00586.02-.00456.01709-.00586.02067-.00456.01677-.00651.02148-.0039.01628-.01042.036-.0026.01139-.00717.02572-.0039.01546-.00651.02344-.00391.01416-.00651.02555-.00325.01221-.00912.03564-.00065.00179-.01042.04-.00065.00407-.00911.03483-.002.00814-.00781.03092-.0026.00977-.00781.03369-.00131.00407-.02929.12077-.00131.00586-.00846.03613-.00065.00325a17.56283,17.56283,0,0,0-.42448,4.2474h0q.01172.84693.0918,1.72868v.00114c.0039.04053.00716.08122.01107.12174l.00065.00765.01172.11524.0013.01416.00586.05485.00065.00765.00456.04769.00195.01692.00586.05241.0013.014.00456.0415.00195.01986.00586.04948.002.01986.00456.03629.0026.02067c.00131.01612.00326.03239.00521.04851l.00326.0236.00325.03125.00326.02636.00586.0446.00325.02653.00326.02816.00521.03987.0039.0306.00326.02914.00325.02522.00716.05176.00261.01937.00456.03353.00195.01709c.0026.02.00521.04036.00846.06055l.002.01432.00455.03613.002.01025c.0026.02279.00586.04379.00911.06657l.00195.01449c.00521.03776.01107.07617.01628.11393l.002.01253.01758.117.0013.00863.01823.12044.0013.00488a33.37119,33.37119,0,0,0,1.207,5.00928,10.66728,10.66728,0,0,0,19.16731,2.42057,51.67692,51.67692,0,0,1,10.7181,8.348,50.52672,50.52672,0,0,1,8.9043,11.74284A10.66642,10.66642,0,1,0,165.819,77.02523a71.5909,71.5909,0,0,0-12.41406-16.584l-.00716-.00716c-.03907-.03955-.07943-.07959-.11849-.1193l-.01172-.01172-.04753-.04753-.01367-.01367-.05729-.05762h0A67.35339,67.35339,0,0,0,131.401,45.22559l-.00065-.00017-.13086-.05224-.0013-.00049-.06511-.02588-.00065-.00016-.0638-.02523-.00325-.0013-.0612-.02425-.00521-.002-.0599-.02343-.00585-.00245-.05925-.023-.00716-.00276-.05859-.02279-.00717-.0026-.05859-.02279-.00651-.00244-.05859-.02246-.00717-.00293-.05859-.0223-.00716-.00277-.05729-.02181-.00847-.00325-.056-.02116-.01041-.00391-.05274-.02-.01367-.00488-.05208-.01986-.01237-.00455-.05208-.01937-.01433-.00521-.04948-.01855-.01627-.006-.04883-.01806-.01563-.00586-.04948-.01807-.01627-.006-.04818-.01774-.01693-.006-.04752-.01742-.01758-.00651-.04687-.01676-.01823-.00668-.04623-.01676-.01888-.00684-.04622-.01644-.01823-.00667-.04623-.01644-.01888-.00683-.04622-.01644-.01823-.00635-.04557-.01611-.02018-.007-.04232-.015-.02279-.008-.04036-.01416-.02474-.00863-.03711-.013-.02735-.00944-.03776-.013-.02669-.00928-.03711-.01269-.028-.00961-.03386-.01155-.0306-.01058-.03125-.01058-.0332-.01139-.028-.00944-.03711-.01254-.02474-.00846-.03906-.013-.0254-.00846-.03906-.01319-.01758-.00586-.04752-.01562-.00716-.00244a29.81174,29.81174,0,0,0-8.84375-1.64274c-.05274-.00066-.10547-.00114-.15821-.00114a10.67414,10.67414,0,0,0-10.32161,13.356l-.15039.00212a10.6768,10.6768,0,0,1,10.32422-13.35921Z" style="fill:#33527d"/><circle cx="117.33333" cy="138.66667" r="10.66667" style="fill:#163969"/><circle cx="53.33333" cy="96" r="10.66667" style="fill:#435e88"/><circle cx="288" cy="32" r="10.66667" style="fill:#bce4ff"/><circle cx="181.33333" cy="224" r="10.66667" style="fill:#bce4ff"/><circle cx="32" cy="309.33333" r="10.66667" style="fill:#bce4ff"/><circle cx="245.33333" cy="394.66667" r="10.66667" style="fill:#bce4ff"/><circle cx="416" cy="160" r="10.66667" style="fill:#bce4ff"/><circle cx="437.33333" cy="352" r="10.66667" style="fill:#bce4ff"/><path d="M103.53776,339.96387a10.67192,10.67192,0,0,0-10.15885,7.42692C85.6224,372.037,83.763,393.60645,87.3431,409.96012v.00017c.02409.112.04818.21989.07357.33138l.0013.00651.04362.194.00195.0096c.015.064.02995.12972.04492.19352l.00065.00358.02865.1224.0026.01237.04428.18815.00325.01383c.01432.06071.02995.12566.04427.1862l.00456.01872.02474.10319.00586.02311c.00456.01921.00911.03874.01432.05794v.00163c.00977.03858.01888.0778.02865.11621l.00716.02995c.00781.03027.01562.06283.02344.09294l.00585.0249c.00456.01921.00847.03516.01368.05436l.00781.03125.02148.08757.00782.03043c.0052.019.00911.03565.01367.05469l.00586.02165.02409.09505.00781.03092.02278.08789.00717.02995c.0052.01888.00911.03353.01367.05257l.00781.03012.02344.08935.00781.02979.013.05127.01237.04541.01823.06933.00977.03679c.0039.01627.00911.03515.01367.05126l.01692.06413.013.048.01106.041.01823.06869c.00391.015.00782.03011.01237.04508.00391.01611.00781.02914.01237.04525l.01433.05452.01627.05762c.00326.014.00781.02914.01172.043l.01172.04378.01953.07.01172.04248.01367.0485.015.055.01563.056.01107.03939.01953.068.01107.03987.015.05323.01042.03662.02148.07373.01042.03825.01562.05322.01237.04313c.00586.02116.01237.04281.01888.064l.01107.03938.01888.06543.01107.03809c.00586.01888.01172.03857.01693.05745l.01041.034c.00716.02523.015.05127.02279.0765l.00911.03157c.00586.021.01172.03939.01823.06039l.00782.02832c.00781.0262.01562.05224.02408.07845l.00912.03011.02344.07975.00586.019c.00716.02393.01367.04525.02148.06934l.00846.02816.02409.07926.00847.02718c.00651.02181.01367.04541.02083.06739l.00651.02132.02539.082.00781.02571.026.084.00261.0083c.00846.02588.01627.05257.02474.07845l.00781.02474c.00846.028.01693.05452.026.08252l.00586.01937.02344.07389.00586.01839.02734.08382.00651.02149.028.08691h0l.026.08138.00716.02214.02214.06787.00455.01432c.01823.057.03646.11345.05534.17025l.00391.01188a48.13106,48.13106,0,0,0,6.96419,13.97624,10.66656,10.66656,0,0,0,17.10091-12.75374,28.09387,28.09387,0,0,1-3.88281-8.14584c-4.12044-12.75993-2.45833-32.87744,4.56055-55.194a10.67529,10.67529,0,0,0-10.17839-13.87Z" style="fill:gold"/><path d="M372.94857,141.8042a10.67559,10.67559,0,0,0-10.60547,11.92513A56.6272,56.6272,0,0,1,362.14,167.4126v.00146c-.02929.23291-.05989.46778-.09179.70215v.00049c-.00912.07015-.01888.14128-.02865.21142v.00066l-.01953.138-.00065.00439c-.00977.07031-.01888.138-.0293.2085l-.00065.00683-.01953.13282-.00065.00683c-.00977.0682-.02018.1364-.03.20459l-.00195.015c-.01693.112-.03451.228-.05143.34049l-.002.01432-.03125.20443-.0026.01432-.01823.1198-.00326.02083c-.01041.06624-.02148.13428-.0319.20068l-.00325.01953-.01888.11719-.00261.019c-.01106.06885-.02148.13119-.03255.2002l-.00456.02441c-.00586.03695-.01172.07487-.01823.11182l-.0039.0236c-.00326.02214-.00716.042-.01042.06413l-.0026.01546-.01953.11784-.00521.028-.01823.10954-.00456.02458-.01042.06445-.00325.01693c-.00651.03955-.01367.08138-.02083.12109l-.00326.01856-.02148.125-.00261.013-.01107.064-.0052.02848c-.00586.03484-.01172.06967-.01823.1045l-.00586.03255c-.00586.03483-.013.07471-.01953.10954l-.00391.02409c-.00391.01985-.00781.04182-.01107.06184l-.00586.03093-.01823.10124-.00651.035-.01041.05957c-.00391.01823-.00716.03776-.01042.056-.00456.0249-.00911.05094-.01432.076-.00261.01514-.00391.02441-.00716.03955l-.01758.09668-.00651.0345-.01172.06153-.00586.03092c-.00586.03272-.013.06918-.01888.10173l-.00651.0358c-.00716.03516-.013.0669-.01953.10206l-.00586.03043-.01172.06185-.00651.03451c-.00716.03515-.01237.06543-.01953.10074l-.00651.03451c-.00651.03271-.01237.0625-.01823.09521l-.00847.04069-.01171.0599-.00651.03353c-.00651.03288-.013.06885-.01954.10156l-.00716.03516-.01562.07829-.01107.05729c-.00391.01758-.00846.04069-.01172.05843l-.00846.04134-.01823.09163-.00847.041c-.0052.02523-.00976.048-.01432.0734l-.013.061c-.0039.02034-.00716.0376-.01172.05778l-.00846.04427c-.00651.03044-.01172.05518-.01758.08561l-.00976.04671c-.00391.01791-.00847.03907-.01172.057l-.01172.05485c-.00521.028-.01042.05029-.01628.07829-.0026.01546-.00651.03157-.00976.0472L361,174.1639l-.01107.05176-.01172.05566-.013.06169-.01562.07259-.00912.04362c-.00586.028-.01172.057-.01823.085l-.01041.05062-.01237.0555-.01042.04964c-.00586.02816-.01237.05811-.01888.0861l-.00911.04427-.01693.07666-.01237.05827-.013.05794c-.00326.01547-.00651.03125-.01042.04688l-.01823.085-.01041.04622-.01237.05681-.01758.078c-.00391.01807-.00847.03971-.013.05762l-.01042.04785-.01823.08138c-.00391.01872-.00781.03515-.01237.05387-.0039.01807-.00716.03434-.01172.05241-.00586.02816-.01237.05566-.01888.084l-.01107.04834-.013.05844c-.00455.02067-.01041.04655-.01562.06722-.00391.01871-.00977.04378-.01432.06266-.00391.01807-.00717.03353-.01172.05176l-.01888.08349-.01107.048-.01432.06006c-.00391.01822-.00912.041-.01368.05908l-.01692.074-.01172.04883-.01758.07471c-.00391.01823-.00846.03825-.013.05648l-.015.0638-.00977.042-.02148.091-.01042.04362c-.00586.02523-.01237.05274-.01888.078-.00391.01823-.00781.03385-.01237.05192l-.01563.06754-.01171.04655-.02084.08822-.01172.04687-.01562.06511-.01432.06038c-.00586.02214-.01237.04915-.01758.07145l-.01042.04216c-.00651.02848-.015.06233-.02213.09082l-.01107.04606c-.00586.02213-.01107.04427-.01628.06657-.00456.01823-.00911.03483-.013.05322-.00651.02539-.01367.0529-.01953.07829l-.01107.04427-.02344.0931-.00911.03792-.01823.07276-.00911.03694-.02344.09424-.01107.04183-.02344.09473-.00976.03711-.01888.074c-.00326.013-.00586.02507-.00977.03825l-.02344.09424-.01106.04183c-.00782.0319-.01563.062-.02409.09407l-.00781.03028-.02084.08138-.00976.03841c-.00847.03206-.01693.06413-.02474.09619l-.01042.03825c-.00716.02881-.013.05143-.02083.0804l-.01237.04883c-.00716.02572-.01433.05339-.02084.0791l-.00976.03825-.026.09749-.00977.0376-.02083.07975-.01042.03842-.02409.09-.00976.03907-.0267.09814-.00911.03564-.02148.08025-.00847.03157c-.00846.03239-.01823.068-.02734.10026l-.00977.0376c-.00846.03223-.01758.06608-.02669.09831l-.00912.03369-.02213.08138-.00912.03288c-.00911.03564-.01757.06689-.02734.10237l-.00911.03174-.02865.10612-.00586.01969c-.00846.03239-.01627.06071-.02539.0931l-.00846.03142-.02865.10367-.00846.03011-.02865.10254-.00521.019-.028.10009-.00781.0293-.0293.10352-.00912.03271-.02669.0944-.00521.01823c-.00976.03581-.02018.07145-.02994.10726l-.00912.03109c-.00976.03581-.01953.06982-.02995.10563l-.00716.02669-.02734.09571-.00586.021c-.01042.03581-.02149.07308-.03125.109l-.00781.02734-.0319.10954-.00586.02165c-.00977.03271-.01823.06331-.028.096l-.00716.02571-.03125.10726-.00846.02946-.0319.10889-.00521.01872-.0293.099-.00716.02522-.03125.10743-.00977.03108c-.00911.03288-.02083.07162-.0306.10449l-.00586.01954c-.00976.03287-.01953.06575-.02864.09863l-.00977.03174-.03125.105-.00911.03043c-.01042.03614-.01888.06364-.02995.09978l-.00391.01481c-.01106.03629-.02213.07259-.03255.10888l-.00976.03158-.03256.10807-.00716.02409-.02995.10026-.00651.01953c-.01041.03646-.02213.07341-.0332.10987l-.00846.02929-.03386.11-.00586.02083c-.01041.033-.02213.0708-.0319.10384l-.00521.01742-.03515.11377-.00716.02409c-.01237.03971-.02409.07666-.03581.11653l-.0026.00733-.03451.1123-.00651.02c-.01107.03646-.02474.07943-.03581.11605l-.00586.01855-.03711.11882-.00195.00716c-.01172.03662-.02409.07715-.03581.11377l-.00586.01921-.0358.1149-.00716.02279c-.013.03988-.02409.07682-.03711.11686v.001c-.013.03988-.02474.07731-.03711.11735l-.00782.0249c-.01171.03662-.02474.07634-.0358.11312l-.00716.02067-.03451.10938-.00391.0122-.03776.11752-.00651.02083c-.013.04-.02474.07764-.03776.11784l-.00455.01383c-.013.04-.02409.07569-.03711.11573l-.00326.00976-.03841.11833-.00716.02246-.03841.11881-.002.00651c-.013.04021-.02539.07878-.03906.119l-.00391.01286c-.01171.03678-.02734.08317-.03906.12012l-.00586.0179c-.013.0402-.02669.08187-.04036.12223l-.00065.00163c-.01172.037-.0267.083-.03907.12l-.00651.01855c-.013.04037-.02474.07666-.03841.117l-.00716.02132c-.02669.08073-.05273.16081-.08008.2417l-.00651.0192c-.013.04053-.026.07813-.03906.11865l-.00586.01775-.03906.11523-.00261.00863c-.01237.03711-.02734.082-.04036.1193l-.00716.02214-.03972.11848-.00455.01351c-.013.03728-.02735.07959-.03972.1167l-.00325.01075c-.01432.04052-.02734.08007-.041.1206l-.00716.01986-.041.12142-.00261.00781c-.013.03727-.02734.08008-.04036.11735l-.00521.01595c-.01367.04069-.02734.0791-.041.11979l-.00651.019-.08593.249-.00456.01351c-.01367.04085-.028.08089-.04167.12158l-.00651.01839c-.02864.08154-.05859.16764-.08659.24935l-.00521.01416c-.01432.04085-.02864.08333-.043.12419l-.00456.012c-.02995.08512-.05925.16943-.08919.25472l-.00456.012-.04427.12613-.00326.00993-.04427.12533-.0013.00374c-.015.041-.0306.08545-.04492.12663l-.00521.01449c-.015.041-.0306.08626-.04557.12744l-.00066.00114-.04622.1302-.002.00586c-.015.04118-.03125.08643-.04557.12761l-.00456.0122c-.0319.0892-.06185.17253-.0944.26189l-.00131.00374c-.01562.0446-.03059.08512-.04687.12972l-.00326.01009c-.03255.08936-.06184.17074-.0944.26009l-.00325.00879c-.04753.13086-.09831.26953-.14649.40039l-.0026.00668c-.01628.04475-.0319.08756-.04883.13232l-.00065.00195c-.03255.08968-.0651.17643-.09831.26628l-.00325.00928c-.0319.08626-.06706.17968-.099.26611l-.0013.00309-.05013.13412-.00065.00325c-.05078.13493-.10287.27295-.15365.40837h0c-.18945.50293-.38086,1.00228-.57747,1.50895l-.00131.00374q-1.42089,3.65332-3.09114,7.42839l-.00065.00065a236.41606,236.41606,0,0,1-13.57943,25.88086l-.00065.00065c-.09115.15234-.1849.30778-.27669.46029l-.00261.0039c-.09179.15251-.18489.30567-.27734.45834l-.00391.00634c-.0612.10173-.12109.19971-.18294.30144l-.00391.00634c-.0306.051-.06119.10108-.09244.152v.001c-.0625.10189-.12631.20654-.18816.30859l-.00065.00016c-.0306.051-.0625.10287-.09375.15381l-.0013.00212c-.0625.102-.125.20508-.18815.30713l-.00065.00211-.0944.15381-.00065.00033c-.0625.102-.1263.20605-.18946.30827l-.0013.00276c-.097.15707-.18815.3055-.28581.46273l-.0013.00228c-.06315.10238-.1276.20638-.19075.30876l-.00065.00081c-.0319.05111-.0625.10091-.0944.15218l-.00391.00651c-.0638.10238-.12565.20248-.18945.305l-.002.0031c-.02929.0472-.06575.1053-.09505.15267l-.0026.00406c-.0612.09848-.12761.20459-.18946.30323l-.0052.00895q-.14454.23048-.28907.46159l-.00195.00276c-.099.15772-.19076.30437-.29037.46224l-.00455.00749c-.097.154-.19336.30664-.291.46078l-.0039.00683-.19206.30339-.00521.00748-.0957.15121-.00326.00521c-.0651.10286-.12825.20166-.19336.30452l-.00521.008c-.0332.05143-.06445.10075-.097.15218l-.0013.00163c-.06511.10286-.13021.20459-.196.30745l-.00455.00749c-.03321.05143-.06446.09993-.097.15153l-.0026.00407c-.03321.05143-.06511.10188-.09831.15332v.00032l-.097.15056-.00716.01139c-.099.15462-.196.30485-.29557.45963l-.00586.00912c-.06641.10319-.13151.2041-.19792.30745l-.0013.00131-.09961.15494-.00195.00293-.20052.30925-.00261.00423c-.0332.05176-.06575.10189-.09961.15348l-.0026.00423c-.06706.10336-.13021.2-.19727.30355l-.00911.014c-.03385.05159-.06315.09684-.097.1486l-.00391.00586c-.0332.05159-.06315.09766-.097.14941l-.00325.00489-.09766.14941-.00781.01237c-.0651.09945-.13607.20752-.20117.30713l-.00065.00114c-.03386.05192-.06511.099-.099.15071l-.00847.013c-.0651.0996-.13346.20361-.19921.30338l-.00391.00635c-.0319.04785-.06641.10107-.09831.14876l-.00976.01514c-.06576.09961-.13216.20068-.19792.30045l-.00586.00879c-.0319.04785-.06706.10157-.099.14942l-.00716.01123c-.06575.09977-.13346.202-.19987.30176l-.00716.01123c-.0319.04785-.06641.10058-.09831.14843l-.00781.01205c-.0345.05176-.0651.09733-.09961.14925v.00016c-.0319.048-.06575.09961-.09766.14746l-.01367.02-.097.14584-.00391.00634c-.0319.048-.0638.09538-.0957.14339l-.00977.01433-.0957.14388-.013.01953c-.03451.05192-.06315.09489-.09831.14681l-.0013.00212c-.0319.04785-.06576.098-.09766.146l-.01041.01563c-.0319.048-.06381.09521-.09571.14323l-.01432.021c-.06445.096-.13086.19564-.19531.29167l-.01367.01985c-.03191.048-.06511.097-.09766.145l-.00911.01351c-.06706.1001-.13217.19662-.19922.29672l-.013.019c-.03256.048-.06446.0957-.097.14372l-.01172.01774-.0957.14144-.00456.00667-.099.146-.013.01985-.09831.14535-.00716.01041-.0983.14535-.00586.00814c-.03256.048-.06641.09765-.099.14583l-.01432.02067-.09831.14518-.00586.00814c-.03255.04818-.0612.09082-.0944.13884l-.01433.021-.0957.14063-.01627.02376c-.06511.09619-.13151.1932-.19727.28955l-.015.022-.09766.14226-.013.0192c-.06576.09636-.13737.201-.20378.29753l-.00976.014-.10157.14844-.00781.01107c-.03255.04818-.07031.10254-.10351.15072v.00081c-.03646.05225-.06771.09766-.10352.1499l-.01107.016-.10351.15056-.0013.00162-.10678.15544-.0026.00309-.10221.1486-.013.01921c-.03386.04818-.06836.099-.10222.14713l-.00325.00554c-.03386.04817-.06576.09489-.09961.14306l-.01172.01775c-.0306.04427-.06836.09863-.09961.1429l-.015.022c-.03321.04834-.06771.09815-.10157.14649v.00032l-.10286.14763-.01237.01806c-.03386.04834-.06576.09457-.09961.14291l-.01563.02246q-.10057.145-.20182.28987l-.01693.02474-.0996.14242-.01172.01692-.10157.145-.0026.00424-.10156.14485-.01693.02425-.10091.14421-.00846.01188-.09961.14258-.00847.01172-.10091.1442-.01693.02344-.10026.1429-.01041.01514-.09375.1333-.01628.02279-.09766.139-.02018.02783-.099.14111-.00846.01139-.0944.13363-.01888.02718c-.03451.04834-.06315.08952-.09766.13786l-.01888.02686c-.0345.0485-.0664.09358-.10026.14209l-.002.00195c-.03386.0485-.06706.09505-.10156.14355l-.01888.0267c-.03125.04443-.06706.09423-.09831.13883l-.01758.02507c-.0319.04443-.06706.09407-.099.13867l-.00455.00651-.10092.14225-.02083.02881c-.03125.04443-.06706.09473-.099.13916l-.01562.02262c-.0293.04037-.06185.08594-.0905.1263l-.01758.02507-.097.13607-.02344.03255c-.0345.04867-.06315.08838-.09765.137l-.01563.02133c-.0319.04459-.0612.08626-.0931.13069l-.01432.01986c-.0319.04443-.06966.09668-.10091.14128l-.01953.02669-.10157.14176-.00911.01286-.09636.13411-.01822.02588c-.03256.04444-.06641.09213-.09831.13672l-.02409.03288-.0944.13184-.01237.01643c-.02865.04053-.06511.0905-.09375.131l-.02474.03353c-.0319.04459-.06511.09114-.09766.13558l-.02018.02815c-.0319.0446-.06641.092-.09831.1364l-.00586.00813c-.03255.0446-.069.09571-.10156.14014l-.02344.033c-.03255.0446-.0651.08968-.097.13428l-.02409.03255c-.026.03662-.05924.08219-.08594.11865l-.01823.02572c-.03515.04866-.0638.08756-.099.13623l-.02408.03271-.09961.1377-.01628.022c-.0319.0446-.06055.08382-.0931.12842l-.01693.02376-.10026.13737-.02408.03288-.10026.1377-.013.01806c-.02929.04053-.06119.08431-.09114.12484l-.02409.03353-.09635.13167-.0267.037c-.0332.04459-.06575.08984-.0983.13444l-.00977.01269c-.03255.04476-.06641.09082-.099.13542l-.02148.0293-.09831.13476-.026.03483-.09375.1281-.00977.01318c-.03255.0446-.06771.09245-.10026.13721l-.02669.0358c-.03255.0446-.0638.08659-.09635.13119l-.02865.03922c-.02734.03662-.05078.06918-.07812.10564l-.0293.0402-.0931.12646-.03255.04362-.09375.12777-.02865.0389-.07552.10156-.0332.04509-.09115.12353-.03581.04834c-.02669.03662-.05989.08089-.08658.11751l-.03451.04606c-.02734.03663-.04948.06722-.07682.10385l-.0319.04345c-.0306.04053-.06315.08448-.0931.12517l-.03321.04459c-.02994.04069-.05859.07894-.08854.11963l-.02734.03646-.08333.112-.03386.04573c-.0306.04069-.06445.08676-.09505.12745l-.02734.03727-.08985.12011-.02018.02686-.09635.12939-.02865.0389c-.03385.04476-.06445.0861-.09766.13086l-.02864.03809-.08464.11279-.02213.03028c-.0306.04069-.06641.08805-.09636.12874l-.03515.04671c-.0306.04069-.0625.08317-.09245.12386l-.03386.04427c-.02408.03256-.05338.07113-.07747.10368l-.02865.03825-.0944.12581-.03711.04948c-.03059.04086-.06445.08529-.095.126l-.02539.034-.07877.105-.03451.0459c-.0306.04069-.06185.08154-.09245.12239l-.03906.0516c-.02409.03255-.05013.067-.07487.09961l-.04948.06575-.07357.09717-.03711.04948c-.03125.04069-.05924.0778-.08984.11849l-.04232.05631-.07422.098c-.01562.02018-.026.03417-.041.05436l-.07813.1027-.04231.05583c-.0306.04085-.06055.0804-.0918.12125l-.0332.04346c-.02735.03662-.04883.06462-.07683.10124l-.04427.05859c-.028.03662-.05534.07324-.08333.10986l-.03646.04753c-.0306.04069-.0638.08382-.0944.12451-.01042.01351-.02474.03206-.03451.04557-.02539.03256-.04752.062-.07226.09457l-.03776.04964-.0892.11719c-.01562.02018-.02864.03694-.04361.057-.03126.04086-.05665.07455-.0879.11524-.013.01676-.02734.03532-.03971.05208l-.069.09-.04232.055c-.028.03662-.0625.08236-.09114.11914-.01237.01677-.028.03679-.041.05355-.02148.02865-.04948.0651-.07161.09359-.02019.02685-.03711.049-.058.07584-.02148.02849-.04752.062-.06966.09066l-.03646.048c-.03125.04086-.06184.0809-.09375.12159-.01237.01676-.02929.03873-.04231.05566-.02539.03255-.04688.06071-.07162.09326l-.05273.0682c-.02149.02848-.04948.06445-.07162.0931-.015.02-.0319.04183-.04752.062-.028.03662-.05664.07373-.08529.11051-.015.02019-.03385.04444-.04948.06462l-.05729.07406c-.02018.02685-.043.05631-.0638.08317l-.069.08886-.04883.064-.06966.08952c-.02279.03011-.04427.05778-.06771.08789l-.05469.071-.06055.078-.07421.096-.04818.06218c-.03125.04085-.05925.07649-.09115.11735l-.03906.05062-.06315.08138-.04948.0638-.08463.10872-.05209.06706-.05729.074-.07878.10124-.054.06966-.05078.06478-.08594.11052-.05143.06608-.0625.08024c-.02149.02685-.04232.054-.06315.08089-.02279.02865-.04558.05811-.06771.08675l-.04688.0599-.09049.11539-.04623.05974-.05989.07617-.06641.085c-.02213.02865-.05338.068-.07552.09652l-.03906.0498c-.0319.04085-.06185.07845-.09375.1193l-.04492.05778c-.02279.02849-.04623.05844-.06836.08708l-.03776.04769c-.02865.03678-.06185.07845-.0905.11523-.01562.02019-.03646.04672-.05273.06674l-.07943.10172-.05013.06315c-.02279.02865-.04753.06088-.07031.08952l-.04167.05274c-.03255.041-.06315.07991-.09505.12093l-.041.05127c-.02864.03694-.056.07129-.08463.10807-.01367.01676-.03451.04313-.04753.05989l-.07357.0931-.041.05176c-.0319.04085-.06315.07975-.09505.12061l-.03907.049-.08984.11312-.03711.04752-.08138.10205c-.01562.02019-.03.03858-.04622.05876l-.09245.11637c-.01563.02019-.02865.03614-.04492.05632-.02214.02864-.04427.05615-.06706.0848-.01888.0236-.03841.048-.05664.07161l-.07813.098-.04492.05664-.0918.1154c-.01627.02018-.0358.0446-.05143.06478-.01953.02458-.03711.04655-.05729.07113l-.071.08935-.069.08692-.05339.06624-.0625.0791c-.02734.03353-.05273.06559-.07943.09928l-.04947.06185-.056.06966-.08855.11117c-.01627.02018-.03255.04-.04817.06022-.0267.03272-.05274.06543-.07878.09815l-.05469.06852c-.02343.02864-.05208.06429-.07487.09293l-.04231.05258c-.03256.04085-.0586.07373-.0918.11458l-.05078.06364c-.0267.03271-.04883.06038-.07487.0931l-.05469.06754-.069.08643c-.01953.02344-.03385.04167-.05273.06527-.03321.04085-.058.07177-.09115.11279-.013.01676-.03255.04069-.04622.05745-.02279.02881-.04427.055-.06706.08366-.02214.027-.04948.061-.071.08806-.02343.02864-.04427.055-.0677.08365l-.04753.0586c-.03255.041-.06445.07975-.097.12077l-.03972.0485c-.02278.02864-.05143.064-.07487.09261l-.04687.05843c-.0267.03272-.058.07178-.08464.10449l-.05273.06543-.07748.09489c-.02148.02686-.04362.05388-.0651.08089-.02018.02458-.03841.04688-.05794.07146-.01953.0236-.04558.05582-.06446.07942l-.08007.09831-.05274.0651-.05859.07211c-.02735.03369-.05925.07324-.08724.10693l-.05209.06462c-.01692.02018-.03515.043-.05143.06315-.02995.03694-.0638.0778-.09375.11458l-.05013.06185-.07617.09359-.05534.06787c-.02669.03288-.04883.05941-.07552.09212-.01888.0236-.03125.03857-.05078.06217l-.08984.11019-.05209.06381-.06575.08056-.06641.08106-.07161.08724c-.01888.0236-.0306.03759-.05013.06119-.03.03679-.06185.07585-.09245.1128l-.05078.06217c-.02344.02865-.04558.056-.06966.08464-.01889.0236-.03646.04476-.056.06836-.0267.03271-.05534.06722-.082.10009l-.04947.06055c-.0306.03678-.06706.08154-.09766.11849l-.041.04964-.07031.08594-.04687.05664c-.03386.041-.06511.07878-.09831.11963l-.04232.05078c-.02995.03695-.0625.07617-.0931.113-.01627.02034-.03385.04134-.05078.06152l-.07031.08561-.05013.06039-.08985.10905-.05859.07063c-.02344.02865-.03971.04834-.0638.077l-.07162.08708c-.02083.02457-.04687.05664-.0677.08121-.01628.02019-.03321.04037-.05013.06055l-.09571.11589-.04948.05908-.06575.07975-.07487.08984c-.02344.02881-.04753.0573-.071.08594l-.04817.05762-.09636.11605-.04752.057-.07552.091c-.01433.01676-.0319.03873-.04623.0555l-.08724.10482-.05664.0677-.09114.10954-.04948.05957-.06706.07992c-.02279.027-.04688.05664-.06966.08349l-.07422.08887-.05469.06527-.08333.09993c-.02018.0236-.03906.04655-.05859.07015l-.06836.08089-.04883.0586c-.0306.03678-.0638.07633-.09505.11328l-.05274.06266-.07682.09229-.06511.077c-.02018.02458-.04752.057-.06836.08155l-.05338.064-.09766.1154c-.01367.01692-.03255.03939-.04687.05615l-.07682.09131-.05925.07015c-.02409.02864-.05534.06608-.08008.09489-.01367.01676-.0319.03808-.04622.055-.0306.03678-.06771.0804-.099.11735l-.05013.0599c-.02474.02864-.04948.05826-.07357.08707-.02018.0236-.0332.0389-.05273.0625-.03125.03695-.06185.07259-.09245.10938l-.04492.05273c-.03125.03679-.07162.08448-.10222.12126l-.04166.04883c-.028.03287-.04818.0568-.07552.08968l-.04623.0542c-.0345.041-.0638.07568-.099.1167-.01692.02018-.02994.03564-.04752.05582-.03451.041-.06836.0809-.10352.12191l-.03515.042c-.03125.03679-.0573.06755-.0892.10433l-.03776.04509c-.03125.03694-.06966.082-.10156.119-.01693.02018-.0319.03808-.04948.05826-.0345.041-.0651.07634-.09961.11735l-.03711.0433-.07942.0931-.05013.05924c-.03516.041-.06381.07422-.09831.11524l-.04948.05761c-.02409.02865-.04818.05681-.07292.08545l-.08073.09457-.06185.07242-.056.06592-.0983.11475-.04623.0542c-.02864.03288-.05533.06429-.08333.09717l-.04036.04687c-.03191.03695-.06967.08154-.10157.11849l-.03971.04639c-.03841.04508-.071.083-.11.12809l-.03645.04281c-.02865.03287-.056.06494-.084.09765l-.05078.05941c-.0319.03695-.0651.07519-.09635.11214l-.04688.05371c-.03125.03695-.0612.07178-.0931.10873-.01758.02018-.04167.04785-.05859.06819-.02149.02458-.04753.05469-.06836.07927l-.04753.05517-.10156.11719c-.01693.02035-.0332.0389-.05078.05925-.028.03271-.054.06282-.08268.0957l-.06576.07617-.07161.08285-.05339.062-.10026.11556-.04753.05485c-.028.03271-.05729.06657-.08593.09928l-.05469.06331-.07943.0918c-.02083.0236-.0345.03955-.05468.06315l-.08659.09978-.069.07942-.0586.06738c-.0319.03711-.06054.06967-.09245.10678-.01822.0205-.03906.04443-.05664.06494l-.06445.07389c-.0319.03695-.06185.07145-.0944.1084l-.05794.06689c-.01823.02051-.03581.041-.05339.06153-.02995.03369-.06445.07324-.09375.10693l-.0612.07064-.06119.06982c-.02474.02865-.04688.0542-.07227.08285l-.082.09391-.06055.06982-.06836.0778-.08594.09815c-.02018.0236-.03906.04508-.05989.06868l-.06771.077c-.0293.03369-.05273.06071-.08268.0944-.01758.02051-.043.04932-.0612.06982l-.05729.0656c-.03255.03694-.06445.07324-.09636.11019l-.06054.06884-.0599.06836c-.03.03369-.0625.07064-.09179.10433l-.06446.07341-.05729.06494c-.02865.03288-.06641.07584-.0957.10856l-.06185.07064-.05729.06494-.10352.11735-.04232.0485c-.02734.03028-.05013.05615-.07682.08659l-.01758.02035c-.04166.047-.08984.10123-.13151.14843-.01758.02051-.03971.04525-.05794.06576-.03255.03711-.0651.07357-.09766.11051l-.05664.06429-.0664.07471-.05534.06283c-.03255.03694-.069.07763-.10156.11474l-.05144.05762-.082.09294c-.02539.0288-.05078.057-.07617.08561-.01758.02018-.04167.04736-.0599.06754l-.071.07992-.08919.10075-.05339.06022c-.02734.03027-.05208.05859-.07942.08887-.0293.03287-.054.06119-.08334.09391-.02083.0236-.03711.042-.05859.06559l-.07031.07943-.07487.084-.08138.09115-.04232.04736-.10938.12256c-.01758.02018-.0345.03906-.05273.05924l-.07162.07992c-.02408.02686-.054.061-.07812.08805-.026.02865-.04818.05388-.07422.08252l-.05729.06413c-.0332.03695-.06445.07243-.09766.10921l-.06445.07211-.05208.0581-.10092.11247-.05729.06429c-.02148.0236-.04622.05143-.06771.07487-.02148.02458-.03776.04264-.05989.06722l-.095.10547-.06446.0721-.07356.08154c-.0254.02865-.05534.062-.08138.09066l-.06055.06755c-.0293.03271-.06771.07487-.097.10758l-.05208.05778-.07357.08138c-.01758.02018-.03841.043-.05664.06315l-.097.10742-.06446.07162-.05924.06575-.10222.11312-.05338.05908c-.02474.027-.04232.04688-.06706.07373l-.09765.10824c-.01823.02018-.041.04574-.0599.06592l-.06315.07015-.09245.10172c-.02213.02458-.04036.04509-.06315.06966-.02083.02344-.04036.04509-.06185.06853-.03385.03694-.06771.07438-.10091.11116l-.05469.06022c-.026.02865-.04883.05339-.07422.082l-.06966.076c-.0293.03272-.05664.06283-.08659.09554l-.05664.06234-.07422.08154-.08919.09782c-.01823.02035-.04036.04444-.05924.065l-.07878.08675-.08008.08772c-.01823.02019-.04362.04818-.0625.06836l-.07226.07943-.08594.09408c-.01888.0205-.04492.049-.06315.06933-.03125.03369-.06055.06592-.09115.09961-.02278.02458-.04752.05192-.06966.0765-.02213.02344-.041.04476-.0625.0682-.02669.02864-.04883.05322-.07552.08186-.02409.02686-.05273.05811-.07747.085l-.07357.08057c-.01888.02-.03646.03955-.05469.05973l-.10482.11377-.054.05925c-.0267.02864-.0573.06185-.08334.09049l-.06966.07569-.08138.089-.054.05827c-.03711.04085-.071.07763-.10873.11848l-.04752.0516c-.026.02865-.05534.06022-.082.08887l-.06575.07177c-.03.03272-.06185.06674-.0918.09945l-.04687.05062-.11133.12093-.05013.05453c-.02669.02864-.056.06022-.082.0887l-.05664.0612c-.03386.03678-.06446.0695-.09831.10612l-.05664.06168c-.03451.03679-.07357.07927-.10742.11605l-.04362.047c-.0306.03271-.06185.06657-.0918.09928l-.03776.04037-.11784.12744-.04427.04753c-.03385.03678-.06966.07487-.10352.11165l-.05208.05615c-.0306.03255-.06055.06494-.09114.09766l-.04688.05045c-.03776.04086-.07422.07976-.112.12061l-.04883.05224c-.03385.03679-.06836.07357-.10221.11036l-.03906.0415c-.03.03272-.06576.071-.09636.10368l-.056.05989-.10807.116-.04753.051c-.03059.03255-.0638.06787-.09375.10058l-.04687.05013c-.03841.04086-.07227.077-.11.11784-.013.01335-.02734.02914-.03971.04248-.04232.04492-.07747.08236-.11914.12728l-.043.04574-.09245.09879-.03841.04118c-.03841.04085-.07552.08008-.11328.12093l-.05339.0568-.10091.1071c-.02148.02344-.043.04606-.0651.0695l-.06706.07178-.07812.08268-.0905.09684c-.01888.02018-.03711.03955-.05664.05957l-.08724.0931-.07357.0778-.07682.08219-.05143.05437-.11.11686-.05664.05989-.08919.09457c-.01888.02018-.03841.041-.05794.061-.0306.03256-.06771.07162-.09831.10433l-.04492.04785c-.03906.04086-.07617.08057-.11524.12126l-.04882.05192c-.0306.03272-.05534.05843-.08594.091l-.06966.07357c-.02735.02849-.058.0612-.08529.08968-.01888.02-.03711.03972-.05664.05974-.03451.03678-.07487.07926-.10938.11588l-.05013.05274c-.02734.02848-.0638.06673-.09049.09521-.01628.01677-.03711.0389-.05274.05566-.03515.03663-.0664.06967-.10091.10629-.01953.02018-.03906.04052-.05794.06071-.0345.03662-.07943.08317-.11393.11979l-.03646.03808c-.0306.03256-.06771.07162-.099.10417l-.041.04313c-.03907.04069-.08073.08464-.1198.12533l-.04231.04492c-.03516.03662-.07162.07471-.10612.11133l-.05925.06152c-.0306.03255-.06185.06511-.0931.09766l-.04036.04232c-.043.04475-.07813.082-.1211.12679l-.04427.04622-.10872.11361-.043.04492-.10286.10726-.04232.04427c-.03906.04069-.08268.08659-.12175.12711l-.041.04281c-.03516.03662-.07031.07357-.10547.11l-.041.04231c-.03906.04069-.07617.07992-.11523.12061l-.03906.04036-.123.12826-.03841.03955-.1211.12581-.01106.01156-.13282.13818-.0358.03711c-.043.04476-.08594.08936-.12956.13412l-.02734.02848-.11263.117-.03386.03483-.123.12727-.04428.04558-.125.12988-.02734.028c-.03581.03662-.07161.07421-.10742.11067l-.04167.04281c-.03906.04069-.07747.0804-.11719.12109-.01562.0166-.03645.03793-.05273.05469l-.10221.10563-.05144.05241c-.03125.03255-.07031.07292-.10221.10547l-.04232.04346c-.03906.04052-.08528.08789-.12435.12858l-.03971.0402c-.03516.03662-.06836.07031-.10352.10677l-.05143.05257-.10677.11019-.04232.043c-.043.04459-.08138.08349-.12434.12809l-.03842.03906-.11588.11866-.02149.02229c-.04362.04476-.08658.08838-.1302.133l-.03972.04118-.1289.13167-.028.02865-.11654.11881-.02864.02962-.13086.13363-.03516.03564-.13151.13461-.02539.02588-.123.12549-.02474.0249c-.04362.04459-.08594.08773-.13021.13232l-.04232.04346c-.04427.04459-.08594.0874-.13021.132l-.01562.01611-.11654.11865c-.01693.01677-.028.02832-.04427.04509-.04037.04052-.08529.08626-.125.12679l-.03841.03857-.11914.12126-.02995.03011c-.03971.04036-.084.0848-.1237.12532l-.03516.03549c-.04362.04459-.08658.08821-.13085.13265l-.03451.03466-.11979.12142-.02018.02051-.13347.13444-.03515.036c-.04427.04444-.08855.08887-.13217.1333l-.03385.03386c-.03581.03629-.07161.07226-.10742.10872-.01367.01318-.02669.02653-.03971.03988l-.127.12776-.041.04134c-.04037.04037-.08985.09017-.12956.13054l-.02734.02734c-.04037.04053-.08269.08285-.1224.12321l-.02344.02344c-.04427.0446-.08854.08887-.13281.1333l-.041.041c-.04427.04443-.08724.08789-.13151.13248l-.02018.0197-.1276.12793-.02735.02783c-.04492.04443-.09244.09212-.13672.13655l-.02994.02995c-.04818.04851-.0931.0931-.14128.1416h0c-.04687.04639-.09245.09213-.13867.13851l-.04362.04362c-.03125.03093-.06641.06592-.097.097l-.04882.04866c-.03646.03614-.06641.06592-.10222.10205l-.03385.03337c-.03841.03874-.08008.07975-.11849.11833l-.026.02571c-.04883.049-.09506.09489-.14388.14388l-.00456.00391c-.04362.04378-.0918.0918-.13607.13558l-.0319.0319c-.03906.03857-.07422.07357-.11263.11214l-.03581.03532-.10807.1071-.03516.03532c-.14518.14388-.28906.28629-.43359.42968l-.02018.0197c-.04362.04362-.08268.08219-.127.12581l-.02148.021c-.19661.19466-.38932.38509-.58659.5791l-.01693.0166c-.04622.04606-.09309.09229-.14.13818l-.0026.00277c-41.599,40.95475-85.87565,68.96745-118.91927,77.70671a10.66663,10.66663,0,1,0,5.45442,20.62418c38.58594-10.20491,87.60091-42.27636,131.11459-85.79134,58.9082-58.90755,93.8151-123.56266,88.92968-164.71663a10.66874,10.66874,0,0,0-10.57877-9.41032Z" style="fill:gold"/><path d="M177.73438,261.861a21.24825,21.24825,0,0,0-8.84441,1.93115,148.27806,148.27806,0,0,1-40.88281,12.02767,21.33334,21.33334,0,0,0,6.11589,42.22608,190.96534,190.96534,0,0,0,52.51888-15.45541,21.33692,21.33692,0,0,0-8.90755-40.72949Z" style="fill:#f98b00"/></g></svg>